<svg class="animated" id="freepik_stories-forms" xmlns="http://www.w3.org/2000/svg" viewBox="0 0 500 500" version="1.1" xmlns:xlink="http://www.w3.org/1999/xlink" xmlns:svgjs="http://svgjs.com/svgjs"><style>svg#freepik_stories-forms:not(.animated) .animable {opacity: 0;}svg#freepik_stories-forms.animated #freepik--background-complete--inject-19 {animation: 1s 1 forwards cubic-bezier(.36,-0.01,.5,1.38) slideDown,1.5s Infinite  linear floating;animation-delay: 0s,1s;}svg#freepik_stories-forms.animated #freepik--Shadow--inject-19 {animation: 1s 1 forwards cubic-bezier(.36,-0.01,.5,1.38) slideLeft,1.5s Infinite  linear floating;animation-delay: 0s,1s;}svg#freepik_stories-forms.animated #freepik--Form--inject-19 {animation: 1s 1 forwards cubic-bezier(.36,-0.01,.5,1.38) slideDown,1.5s Infinite  linear floating;animation-delay: 0s,1s;}svg#freepik_stories-forms.animated #freepik--Plant--inject-19 {animation: 1s 1 forwards cubic-bezier(.36,-0.01,.5,1.38) slideLeft,1.5s Infinite  linear floating;animation-delay: 0s,1s;}svg#freepik_stories-forms.animated #freepik--Character--inject-19 {animation: 1s 1 forwards cubic-bezier(.36,-0.01,.5,1.38) slideRight,1.5s Infinite  linear floating;animation-delay: 0s,1s;}            @keyframes slideDown {                0% {                    opacity: 0;                    transform: translateY(-30px);                }                100% {                    opacity: 1;                    transform: translateY(0);                }            }                    @keyframes floating {                0% {                    opacity: 1;                    transform: translateY(0px);                }                50% {                    transform: translateY(-10px);                }                100% {                    opacity: 1;                    transform: translateY(0px);                }            }                    @keyframes slideLeft {                0% {                    opacity: 0;                    transform: translateX(-30px);                }                100% {                    opacity: 1;                    transform: translateX(0);                }            }                    @keyframes slideRight {                0% {                    opacity: 0;                    transform: translateX(30px);                }                100% {                    opacity: 1;                    transform: translateX(0);                }            }        </style><g id="freepik--background-complete--inject-19" class="animable" style="transform-origin: 250px 228.23px;"><rect x="416.78" y="398.49" width="33.12" height="0.25" style="fill: rgb(235, 235, 235); transform-origin: 433.34px 398.615px;" id="elitw18t5cpbp" class="animable"></rect><rect x="322.53" y="401.21" width="8.69" height="0.25" style="fill: rgb(235, 235, 235); transform-origin: 326.875px 401.335px;" id="elgz96rr05d7l" class="animable"></rect><rect x="396.59" y="389.21" width="19.19" height="0.25" style="fill: rgb(235, 235, 235); transform-origin: 406.185px 389.335px;" id="elk564w3i8u8i" class="animable"></rect><rect x="52.46" y="390.89" width="43.19" height="0.25" style="fill: rgb(235, 235, 235); transform-origin: 74.055px 391.015px;" id="elr2g2mb96m0l" class="animable"></rect><rect x="104.56" y="390.89" width="6.33" height="0.25" style="fill: rgb(235, 235, 235); transform-origin: 107.725px 391.015px;" id="elrx8d319ei8" class="animable"></rect><rect x="131.47" y="395.11" width="93.68" height="0.25" style="fill: rgb(235, 235, 235); transform-origin: 178.31px 395.235px;" id="el2gspez1odum" class="animable"></rect><path d="M237,337.8H43.92a5.71,5.71,0,0,1-5.71-5.71V60.66A5.71,5.71,0,0,1,43.92,55H237a5.71,5.71,0,0,1,5.71,5.71V332.09A5.71,5.71,0,0,1,237,337.8ZM43.92,55.2a5.47,5.47,0,0,0-5.46,5.46V332.09a5.47,5.47,0,0,0,5.46,5.46H237a5.47,5.47,0,0,0,5.46-5.46V60.66A5.47,5.47,0,0,0,237,55.2Z" style="fill: rgb(235, 235, 235); transform-origin: 140.46px 196.4px;" id="elrqqwif1xdh" class="animable"></path><path d="M453.31,337.8H260.21a5.72,5.72,0,0,1-5.71-5.71V60.66A5.72,5.72,0,0,1,260.21,55h193.1A5.71,5.71,0,0,1,459,60.66V332.09A5.71,5.71,0,0,1,453.31,337.8ZM260.21,55.2a5.47,5.47,0,0,0-5.46,5.46V332.09a5.47,5.47,0,0,0,5.46,5.46h193.1a5.47,5.47,0,0,0,5.46-5.46V60.66a5.47,5.47,0,0,0-5.46-5.46Z" style="fill: rgb(235, 235, 235); transform-origin: 356.75px 196.4px;" id="el2vsauv5mcm1" class="animable"></path><rect y="382.4" width="500" height="0.25" style="fill: rgb(235, 235, 235); transform-origin: 250px 382.525px;" id="eliizh0k3ya7l" class="animable"></rect><rect x="78.32" y="123.62" width="1.65" height="128.71" style="fill: rgb(224, 224, 224); transform-origin: 79.145px 187.975px;" id="ellnjchel5x7" class="animable"></rect><rect x="181.07" y="123.62" width="1.65" height="128.71" style="fill: rgb(224, 224, 224); transform-origin: 181.895px 187.975px;" id="el1reqwlgrmap" class="animable"></rect><polygon points="189.18 131.71 71.86 131.71 69.38 125.93 191.66 125.93 189.18 131.71" style="fill: rgb(235, 235, 235); transform-origin: 130.52px 128.82px;" id="el0tdenb76c5br" class="animable"></polygon><polygon points="189.18 139.64 71.86 139.64 69.38 133.86 191.66 133.86 189.18 139.64" style="fill: rgb(235, 235, 235); transform-origin: 130.52px 136.75px;" id="el2dqtk0jm0wo" class="animable"></polygon><polygon points="189.18 147.57 71.86 147.57 69.38 141.79 191.66 141.79 189.18 147.57" style="fill: rgb(235, 235, 235); transform-origin: 130.52px 144.68px;" id="el0zou6lgmd5pi" class="animable"></polygon><polygon points="189.18 155.5 71.86 155.5 69.38 149.72 191.66 149.72 189.18 155.5" style="fill: rgb(235, 235, 235); transform-origin: 130.52px 152.61px;" id="elbpgs4eykg7s" class="animable"></polygon><polygon points="189.18 163.43 71.86 163.43 69.38 157.66 191.66 157.66 189.18 163.43" style="fill: rgb(235, 235, 235); transform-origin: 130.52px 160.545px;" id="el182q3kq75xe" class="animable"></polygon><polygon points="189.18 171.36 71.86 171.36 69.38 165.59 191.66 165.59 189.18 171.36" style="fill: rgb(235, 235, 235); transform-origin: 130.52px 168.475px;" id="el0uf9y1enmh38" class="animable"></polygon><polygon points="189.18 179.3 71.86 179.3 69.38 173.52 191.66 173.52 189.18 179.3" style="fill: rgb(235, 235, 235); transform-origin: 130.52px 176.41px;" id="elza7iw3cast" class="animable"></polygon><polygon points="189.18 187.23 71.86 187.23 69.38 181.45 191.66 181.45 189.18 187.23" style="fill: rgb(235, 235, 235); transform-origin: 130.52px 184.34px;" id="eloi5eq8bjni" class="animable"></polygon><polygon points="189.18 195.16 71.86 195.16 69.38 189.38 191.66 189.38 189.18 195.16" style="fill: rgb(235, 235, 235); transform-origin: 130.52px 192.27px;" id="el7u03w0eflze" class="animable"></polygon><polygon points="189.18 203.09 71.86 203.09 69.38 197.31 191.66 197.31 189.18 203.09" style="fill: rgb(235, 235, 235); transform-origin: 130.52px 200.2px;" id="elob6fwyfk16e" class="animable"></polygon><polygon points="189.18 211.02 71.86 211.02 69.38 205.24 191.66 205.24 189.18 211.02" style="fill: rgb(235, 235, 235); transform-origin: 130.52px 208.13px;" id="elpjx8pqbm9dk" class="animable"></polygon><polygon points="189.18 218.95 71.86 218.95 69.38 213.18 191.66 213.18 189.18 218.95" style="fill: rgb(235, 235, 235); transform-origin: 130.52px 216.065px;" id="elrrqgigqo1ij" class="animable"></polygon><polygon points="189.18 226.88 71.86 226.88 69.38 221.11 191.66 221.11 189.18 226.88" style="fill: rgb(235, 235, 235); transform-origin: 130.52px 223.995px;" id="el8berwz68bvy" class="animable"></polygon><polygon points="189.18 234.81 71.86 234.81 69.38 229.04 191.66 229.04 189.18 234.81" style="fill: rgb(235, 235, 235); transform-origin: 130.52px 231.925px;" id="elry49x06ot8" class="animable"></polygon><polygon points="189.18 242.75 71.86 242.75 69.38 236.97 191.66 236.97 189.18 242.75" style="fill: rgb(235, 235, 235); transform-origin: 130.52px 239.86px;" id="el7s6epaijvjl" class="animable"></polygon><polygon points="189.18 250.68 71.86 250.68 69.38 244.9 191.66 244.9 189.18 250.68" style="fill: rgb(235, 235, 235); transform-origin: 130.52px 247.79px;" id="elv58brqkap2" class="animable"></polygon><rect x="69.38" y="250.68" width="122.28" height="3.3" style="fill: rgb(224, 224, 224); transform-origin: 130.52px 252.33px;" id="elmvhx6q4melh" class="animable"></rect><rect x="65.12" y="118.7" width="130.81" height="7.7" style="fill: rgb(224, 224, 224); transform-origin: 130.525px 122.55px;" id="elkdkq2pke42" class="animable"></rect><path d="M66.46,196.24h0a1.33,1.33,0,0,1-1.33-1.34V150a1.32,1.32,0,0,1,1.33-1.33h0A1.33,1.33,0,0,1,67.79,150V194.9A1.34,1.34,0,0,1,66.46,196.24Z" style="fill: rgb(224, 224, 224); transform-origin: 66.46px 172.455px;" id="elwoch9pi14pf" class="animable"></path><rect x="65.98" y="124.85" width="0.96" height="26.68" style="fill: rgb(224, 224, 224); transform-origin: 66.46px 138.19px;" id="elcooydzdnqnb" class="animable"></rect><rect x="319.54" y="123.62" width="1.65" height="128.71" style="fill: rgb(224, 224, 224); transform-origin: 320.365px 187.975px;" id="el0d4zxyzoojim" class="animable"></rect><rect x="422.28" y="123.62" width="1.65" height="128.71" style="fill: rgb(224, 224, 224); transform-origin: 423.105px 187.975px;" id="el0q5uprhvcmg" class="animable"></rect><polygon points="430.4 131.71 313.07 131.71 310.6 125.93 432.88 125.93 430.4 131.71" style="fill: rgb(235, 235, 235); transform-origin: 371.74px 128.82px;" id="eloegyf301m2" class="animable"></polygon><polygon points="430.4 139.64 313.07 139.64 310.6 133.86 432.88 133.86 430.4 139.64" style="fill: rgb(235, 235, 235); transform-origin: 371.74px 136.75px;" id="elldek3y8otor" class="animable"></polygon><polygon points="430.4 147.57 313.07 147.57 310.6 141.79 432.88 141.79 430.4 147.57" style="fill: rgb(235, 235, 235); transform-origin: 371.74px 144.68px;" id="el85uwx6cmcck" class="animable"></polygon><polygon points="430.4 155.5 313.07 155.5 310.6 149.72 432.88 149.72 430.4 155.5" style="fill: rgb(235, 235, 235); transform-origin: 371.74px 152.61px;" id="elp9zr2jt8vyp" class="animable"></polygon><polygon points="430.4 163.43 313.07 163.43 310.6 157.66 432.88 157.66 430.4 163.43" style="fill: rgb(235, 235, 235); transform-origin: 371.74px 160.545px;" id="elo8drtd7tjdo" class="animable"></polygon><polygon points="430.4 171.36 313.07 171.36 310.6 165.59 432.88 165.59 430.4 171.36" style="fill: rgb(235, 235, 235); transform-origin: 371.74px 168.475px;" id="ellxoasksrmae" class="animable"></polygon><polygon points="430.4 179.3 313.07 179.3 310.6 173.52 432.88 173.52 430.4 179.3" style="fill: rgb(235, 235, 235); transform-origin: 371.74px 176.41px;" id="eli7zjf12tdp9" class="animable"></polygon><polygon points="430.4 187.23 313.07 187.23 310.6 181.45 432.88 181.45 430.4 187.23" style="fill: rgb(235, 235, 235); transform-origin: 371.74px 184.34px;" id="eln7xugtasle" class="animable"></polygon><polygon points="430.4 195.16 313.07 195.16 310.6 189.38 432.88 189.38 430.4 195.16" style="fill: rgb(235, 235, 235); transform-origin: 371.74px 192.27px;" id="ellv1b6lqx6w" class="animable"></polygon><polygon points="430.4 203.09 313.07 203.09 310.6 197.31 432.88 197.31 430.4 203.09" style="fill: rgb(235, 235, 235); transform-origin: 371.74px 200.2px;" id="el5phjzgo6rgr" class="animable"></polygon><polygon points="430.4 211.02 313.07 211.02 310.6 205.24 432.88 205.24 430.4 211.02" style="fill: rgb(235, 235, 235); transform-origin: 371.74px 208.13px;" id="elnd1vlugjbxi" class="animable"></polygon><polygon points="430.4 218.95 313.07 218.95 310.6 213.18 432.88 213.18 430.4 218.95" style="fill: rgb(235, 235, 235); transform-origin: 371.74px 216.065px;" id="elmmo5gp1qo39" class="animable"></polygon><polygon points="430.4 226.88 313.07 226.88 310.6 221.11 432.88 221.11 430.4 226.88" style="fill: rgb(235, 235, 235); transform-origin: 371.74px 223.995px;" id="elf3pb8cm6ag" class="animable"></polygon><polygon points="430.4 234.81 313.07 234.81 310.6 229.04 432.88 229.04 430.4 234.81" style="fill: rgb(235, 235, 235); transform-origin: 371.74px 231.925px;" id="ely9m18zk641b" class="animable"></polygon><polygon points="430.4 242.75 313.07 242.75 310.6 236.97 432.88 236.97 430.4 242.75" style="fill: rgb(235, 235, 235); transform-origin: 371.74px 239.86px;" id="el7gqnczynjnp" class="animable"></polygon><polygon points="430.4 250.68 313.07 250.68 310.6 244.9 432.88 244.9 430.4 250.68" style="fill: rgb(235, 235, 235); transform-origin: 371.74px 247.79px;" id="elyodcm7bhs8h" class="animable"></polygon><rect x="310.6" y="250.68" width="122.28" height="3.3" style="fill: rgb(224, 224, 224); transform-origin: 371.74px 252.33px;" id="elhjgkdey50v6" class="animable"></rect><rect x="306.33" y="118.7" width="130.81" height="7.7" style="fill: rgb(224, 224, 224); transform-origin: 371.735px 122.55px;" id="elfekhern7abn" class="animable"></rect><path d="M307.68,196.24h0a1.33,1.33,0,0,1-1.33-1.34V150a1.32,1.32,0,0,1,1.33-1.33h0A1.33,1.33,0,0,1,309,150V194.9A1.34,1.34,0,0,1,307.68,196.24Z" style="fill: rgb(224, 224, 224); transform-origin: 307.675px 172.455px;" id="el94q3rqzahql" class="animable"></path><rect x="307.2" y="124.85" width="0.96" height="26.68" style="fill: rgb(224, 224, 224); transform-origin: 307.68px 138.19px;" id="elnb66y51rpss" class="animable"></rect><rect x="110.34" y="105.11" width="279.32" height="158" style="fill: rgb(224, 224, 224); transform-origin: 250px 184.11px;" id="eldetuidth87t" class="animable"></rect><rect x="107.25" y="260.36" width="285.5" height="6.6" rx="1.64" style="fill: rgb(235, 235, 235); transform-origin: 250px 263.66px;" id="elr25067ua688" class="animable"></rect><rect x="116.75" y="109.91" width="266.49" height="151.95" style="fill: rgb(250, 250, 250); transform-origin: 249.995px 185.885px;" id="elx5n42l2ub9r" class="animable"></rect><path d="M264.67,290.13,251.5,275.64V267a1.5,1.5,0,1,0-3,0v8.67l-13.17,14.49c-1.37,1.51.75,3.84,2.12,2.34q5.52-6.09,11.05-12.16v10.87a1.5,1.5,0,1,0,3,0V280.31q5.52,6.07,11.05,12.16C263.92,294,266,291.64,264.67,290.13Z" style="fill: rgb(230, 230, 230); transform-origin: 249.992px 279.242px;" id="elze6290xl9dm" class="animable"></path><rect x="99.87" y="97.86" width="300.27" height="14.5" rx="4.14" style="fill: rgb(240, 240, 240); transform-origin: 250.005px 105.11px;" id="el8giukcqxuj6" class="animable"></rect><rect x="68.8" y="293.46" width="118.06" height="40.75" style="fill: rgb(235, 235, 235); transform-origin: 127.83px 313.835px;" id="elcx416tnyhw" class="animable"></rect><rect x="68.8" y="334.21" width="118.06" height="40.75" style="fill: rgb(235, 235, 235); transform-origin: 127.83px 354.585px;" id="elnps4cw5e80h" class="animable"></rect><polygon points="113.66 334.21 128.34 293.46 105.74 293.46 91.05 334.21 113.66 334.21" style="fill: rgb(240, 240, 240); transform-origin: 109.695px 313.835px;" id="elz05e07am05" class="animable"></polygon><polygon points="139.29 293.46 134.32 293.46 119.63 334.21 124.6 334.21 139.29 293.46" style="fill: rgb(240, 240, 240); transform-origin: 129.46px 313.835px;" id="ellofxjwwwoyg" class="animable"></polygon><polygon points="98.97 374.96 113.66 334.21 91.05 334.21 76.36 374.96 98.97 374.96" style="fill: rgb(240, 240, 240); transform-origin: 95.01px 354.585px;" id="eldiyzmfewx7h" class="animable"></polygon><polygon points="124.6 334.21 119.63 334.21 104.94 374.96 109.91 374.96 124.6 334.21" style="fill: rgb(240, 240, 240); transform-origin: 114.77px 354.585px;" id="el4ace6rgcmrk" class="animable"></polygon><g id="ellg724d41xv"><rect x="125.76" y="238.64" width="4.12" height="118.06" style="fill: rgb(224, 224, 224); transform-origin: 127.82px 297.67px; transform: rotate(90deg);" class="animable"></rect></g><g id="eldibmup87r89"><rect x="125.76" y="279.07" width="4.12" height="118.06" style="fill: rgb(224, 224, 224); transform-origin: 127.82px 338.1px; transform: rotate(90deg);" class="animable"></rect></g><path d="M130.84,319.05a1.77,1.77,0,1,0,0-3.54h-6a1.77,1.77,0,1,0,0,3.54Z" style="fill: rgb(224, 224, 224); transform-origin: 127.84px 317.28px;" id="elzexeefbv3gp" class="animable"></path><path d="M130.84,318.42a1.77,1.77,0,1,0,0-3.54h-6a1.77,1.77,0,1,0,0,3.54Z" style="fill: rgb(245, 245, 245); transform-origin: 127.84px 316.65px;" id="elvkof7lynz1" class="animable"></path><path d="M130.84,356.67a1.78,1.78,0,0,0,0-3.55h-6a1.78,1.78,0,0,0,0,3.55Z" style="fill: rgb(224, 224, 224); transform-origin: 127.84px 354.895px;" id="elx6is1y9f89q" class="animable"></path><path d="M130.84,356a1.77,1.77,0,1,0,0-3.54h-6a1.77,1.77,0,1,0,0,3.54Z" style="fill: rgb(245, 245, 245); transform-origin: 127.84px 354.23px;" id="eluj4x7c30yjc" class="animable"></path><path d="M66.73,291.63v85.11H188.91V291.63Zm118.06,81H70.86V336.36H184.79Zm0-40.38H70.86V296H184.79Z" style="fill: rgb(245, 245, 245); transform-origin: 127.82px 334.185px;" id="el4haoeno5uft" class="animable"></path><rect x="190.97" y="293.46" width="118.06" height="40.75" style="fill: rgb(235, 235, 235); transform-origin: 250px 313.835px;" id="eldovve8hmi7" class="animable"></rect><rect x="190.97" y="334.21" width="118.06" height="40.75" style="fill: rgb(235, 235, 235); transform-origin: 250px 354.585px;" id="elfi10aqsm6z" class="animable"></rect><polygon points="282.5 334.21 297.19 293.46 274.59 293.46 259.9 334.21 282.5 334.21" style="fill: rgb(240, 240, 240); transform-origin: 278.545px 313.835px;" id="elju0qt0u7eye" class="animable"></polygon><polygon points="308.13 293.46 303.17 293.46 288.48 334.21 293.44 334.21 308.13 293.46" style="fill: rgb(240, 240, 240); transform-origin: 298.305px 313.835px;" id="elv5b1alf7hkr" class="animable"></polygon><polygon points="267.82 374.96 282.5 334.21 259.9 334.21 245.21 374.96 267.82 374.96" style="fill: rgb(240, 240, 240); transform-origin: 263.855px 354.585px;" id="el7idxwtmss9r" class="animable"></polygon><polygon points="293.44 334.21 288.48 334.21 273.79 374.96 278.76 374.96 293.44 334.21" style="fill: rgb(240, 240, 240); transform-origin: 283.615px 354.585px;" id="elnauw8rm6l4e" class="animable"></polygon><g id="el563ck3di2qi"><rect x="247.94" y="238.63" width="4.12" height="118.06" style="fill: rgb(224, 224, 224); transform-origin: 250px 297.66px; transform: rotate(90deg);" class="animable"></rect></g><g id="eli5bakfl7wl"><rect x="247.94" y="279.07" width="4.12" height="118.06" style="fill: rgb(224, 224, 224); transform-origin: 250px 338.1px; transform: rotate(90deg);" class="animable"></rect></g><path d="M253,319.05a1.77,1.77,0,0,0,0-3.54h-6a1.77,1.77,0,1,0,0,3.54Z" style="fill: rgb(224, 224, 224); transform-origin: 250px 317.28px;" id="eluazat1b3fmo" class="animable"></path><path d="M253,318.42a1.77,1.77,0,0,0,0-3.54h-6a1.77,1.77,0,1,0,0,3.54Z" style="fill: rgb(245, 245, 245); transform-origin: 250px 316.65px;" id="elwi4zypd4wla" class="animable"></path><path d="M253,356.67a1.78,1.78,0,0,0,0-3.55h-6a1.78,1.78,0,0,0,0,3.55Z" style="fill: rgb(224, 224, 224); transform-origin: 250px 354.895px;" id="elkbznp2mh9q" class="animable"></path><path d="M253,356a1.77,1.77,0,0,0,0-3.54h-6a1.77,1.77,0,1,0,0,3.54Z" style="fill: rgb(245, 245, 245); transform-origin: 250px 354.23px;" id="elis2zu7oh55o" class="animable"></path><path d="M188.91,291.63v85.11H311.09V291.63Zm118.06,81H193V336.36H307Zm0-40.38H193V296H307Z" style="fill: rgb(245, 245, 245); transform-origin: 250px 334.185px;" id="elz35jdezaky" class="animable"></path><rect x="313.15" y="293.46" width="118.06" height="40.75" style="fill: rgb(235, 235, 235); transform-origin: 372.18px 313.835px;" id="eli6muw9o3f2a" class="animable"></rect><rect x="313.15" y="334.21" width="118.06" height="40.75" style="fill: rgb(235, 235, 235); transform-origin: 372.18px 354.585px;" id="elu0mlbickomb" class="animable"></rect><polygon points="387.91 334.21 402.6 293.46 379.99 293.46 365.3 334.21 387.91 334.21" style="fill: rgb(240, 240, 240); transform-origin: 383.95px 313.835px;" id="elcurgg15gelv" class="animable"></polygon><polygon points="413.54 293.46 408.57 293.46 393.88 334.21 398.85 334.21 413.54 293.46" style="fill: rgb(240, 240, 240); transform-origin: 403.71px 313.835px;" id="elsz6jaqew9v" class="animable"></polygon><polygon points="373.22 374.96 387.91 334.21 365.3 334.21 350.61 374.96 373.22 374.96" style="fill: rgb(240, 240, 240); transform-origin: 369.26px 354.585px;" id="ele5xvdtp3ku" class="animable"></polygon><polygon points="398.85 334.21 393.88 334.21 379.19 374.96 384.16 374.96 398.85 334.21" style="fill: rgb(240, 240, 240); transform-origin: 389.02px 354.585px;" id="el321i77upio3" class="animable"></polygon><g id="el0cpo9ueefa4"><rect x="370.12" y="238.63" width="4.12" height="118.06" style="fill: rgb(224, 224, 224); transform-origin: 372.18px 297.66px; transform: rotate(90deg);" class="animable"></rect></g><g id="el3wsyfefss16"><rect x="370.12" y="279.07" width="4.12" height="118.06" style="fill: rgb(224, 224, 224); transform-origin: 372.18px 338.1px; transform: rotate(90deg);" class="animable"></rect></g><path d="M375.2,319.05a1.77,1.77,0,1,0,0-3.54h-6a1.77,1.77,0,1,0,0,3.54Z" style="fill: rgb(224, 224, 224); transform-origin: 372.2px 317.28px;" id="eljczcwtuuga" class="animable"></path><path d="M375.2,318.42a1.77,1.77,0,1,0,0-3.54h-6a1.77,1.77,0,1,0,0,3.54Z" style="fill: rgb(245, 245, 245); transform-origin: 372.2px 316.65px;" id="ele3rdlly53vh" class="animable"></path><path d="M375.2,356.67a1.78,1.78,0,0,0,0-3.55h-6a1.78,1.78,0,0,0,0,3.55Z" style="fill: rgb(224, 224, 224); transform-origin: 372.2px 354.895px;" id="el4yla7ofdrxd" class="animable"></path><path d="M375.2,356a1.77,1.77,0,1,0,0-3.54h-6a1.77,1.77,0,1,0,0,3.54Z" style="fill: rgb(245, 245, 245); transform-origin: 372.2px 354.23px;" id="elo929d4kipa" class="animable"></path><path d="M311.09,291.63v85.11H433.27V291.63Zm118.05,81H315.21V336.36H429.14Zm0-40.38H315.21V296H429.14Z" style="fill: rgb(245, 245, 245); transform-origin: 372.18px 334.185px;" id="elpm2vh3fogc" class="animable"></path><polygon points="421.45 382.87 78.55 382.87 76.76 376.74 423.24 376.74 421.45 382.87" style="fill: rgb(224, 224, 224); transform-origin: 250px 379.805px;" id="eliimdjfsaf3" class="animable"></polygon></g><g id="freepik--Shadow--inject-19" class="animable animator-active" style="transform-origin: 250px 412.39px;"><ellipse id="freepik--path--inject-19" cx="250" cy="412.39" rx="193.89" ry="11.32" style="fill: rgb(245, 245, 245); transform-origin: 250px 412.39px;" class="animable"></ellipse></g><g id="freepik--Form--inject-19" class="animable" style="transform-origin: 238.44px 157.053px;"><path d="M132.74,240h222a9.88,9.88,0,0,0,10-11L352.79,92.68a12.2,12.2,0,0,0-11.91-11h-222a9.88,9.88,0,0,0-10,11l11.93,136.37A12.2,12.2,0,0,0,132.74,240Z" style="fill: rgb(38, 50, 56); transform-origin: 236.81px 160.84px;" id="eldbtxo0o5y4w" class="animable"></path><g id="el74g60j10dqq"><path d="M132.74,240h222a9.88,9.88,0,0,0,10-11L352.79,92.68a12.2,12.2,0,0,0-11.91-11h-222a9.88,9.88,0,0,0-10,11l11.93,136.37A12.2,12.2,0,0,0,132.74,240Z" style="fill: rgb(255, 255, 255); opacity: 0.7; transform-origin: 236.81px 160.84px;" class="animable"></path></g><polygon points="132.98 226.05 349.45 226.05 337.44 88.83 120.97 88.83 132.98 226.05" style="fill: rgb(56, 211, 159); transform-origin: 235.21px 157.44px;" id="elq7soxok885l" class="animable"></polygon><path d="M136,236.79h222a9.88,9.88,0,0,0,10-11L356,89.46a12.2,12.2,0,0,0-11.92-10.95h-222a9.88,9.88,0,0,0-10,10.95L124,225.83A12.21,12.21,0,0,0,136,236.79Z" style="fill: rgb(56, 211, 159); transform-origin: 240.043px 157.65px;" id="el8j5ibcjtjl5" class="animable"></path><polygon points="132.98 226.05 349.45 226.05 337.44 88.83 120.97 88.83 132.98 226.05" style="fill: rgb(56, 211, 159); transform-origin: 235.21px 157.44px;" id="el5gfd1pnp3o" class="animable"></polygon><g id="elfus77oz5col"><polygon points="132.98 226.26 349.45 226.26 337.44 89.04 120.97 89.04 132.98 226.26" style="fill: rgb(255, 255, 255); opacity: 0.4; transform-origin: 235.21px 157.65px;" class="animable"></polygon></g><polygon points="338.52 101.4 122.06 101.4 120.97 89.04 337.44 89.04 338.52 101.4" style="fill: rgb(56, 211, 159); transform-origin: 229.745px 95.22px;" id="elj36pudxreud" class="animable"></polygon><g id="elhybxgu4tqi"><polygon points="338.52 101.4 122.06 101.4 120.97 89.04 337.44 89.04 338.52 101.4" style="opacity: 0.5; transform-origin: 229.745px 95.22px;" class="animable"></polygon></g><path d="M130.12,94.12l.1,1.11h1.94l.07.78h-1.95l.14,1.53h-1l-.37-4.2h3.17l.07.78Z" style="fill: rgb(255, 255, 255); transform-origin: 130.67px 95.44px;" id="elyb6ib3d0qb" class="animable"></path><path d="M132.79,95.44a2,2,0,0,1,2.11-2.17,2.41,2.41,0,0,1,2.48,2.17,2,2,0,0,1-2.1,2.18A2.42,2.42,0,0,1,132.79,95.44Zm3.61,0A1.42,1.42,0,0,0,135,94.1a1.16,1.16,0,0,0-1.2,1.34,1.43,1.43,0,0,0,1.44,1.35A1.16,1.16,0,0,0,136.4,95.44Z" style="fill: rgb(255, 255, 255); transform-origin: 135.085px 95.4447px;" id="elilmdesnvqed" class="animable"></path><path d="M141,97.54l-.91-1.17h-.9l.1,1.17h-1l-.37-4.2h1.82a1.74,1.74,0,0,1,2,1.53,1.23,1.23,0,0,1-.75,1.32L142,97.54Zm-1.21-3.41H139l.12,1.47h.8c.59,0,.86-.28.83-.73S140.36,94.13,139.77,94.13Z" style="fill: rgb(255, 255, 255); transform-origin: 139.96px 95.4294px;" id="elozcsd8qchdo" class="animable"></path><path d="M146.53,97.54,146.31,95l-1.06,2.08h-.44l-1.4-2,.21,2.46h-.91l-.37-4.2h.81L145,96l1.32-2.61h.79l.38,4.2Z" style="fill: rgb(255, 255, 255); transform-origin: 144.915px 95.465px;" id="el0mqz3bb47lc" class="animable"></path><path d="M136.24,111.2l.08.92h1.62l.06.65h-1.62l.11,1.28h-.81l-.31-3.51H138l.06.66Z" style="fill: rgb(56, 211, 159); transform-origin: 136.715px 112.295px;" id="elxsr5m9s5ec9" class="animable"></path><path d="M138.37,110.54a.4.4,0,0,1,.45-.43.48.48,0,0,1,.52.42.41.41,0,0,1-.45.45A.49.49,0,0,1,138.37,110.54Zm.16.82h.78l.24,2.69h-.78Z" style="fill: rgb(56, 211, 159); transform-origin: 138.959px 112.078px;" id="el9sg0imnlc4j" class="animable"></path><path d="M141.71,111.31l.06.73-.18,0c-.43,0-.69.24-.65.76l.11,1.27h-.78l-.23-2.69h.74l0,.35A1,1,0,0,1,141.71,111.31Z" style="fill: rgb(56, 211, 159); transform-origin: 140.905px 112.687px;" id="el721389czs66" class="animable"></path><path d="M142.14,113.8l.21-.56a2,2,0,0,0,1,.26c.36,0,.48-.1.47-.25,0-.44-1.63,0-1.72-1.06,0-.51.39-.88,1.17-.88a2.37,2.37,0,0,1,1.06.24l-.21.56a1.66,1.66,0,0,0-.8-.2c-.35,0-.49.11-.48.25,0,.46,1.63,0,1.72,1.07,0,.5-.39.86-1.19.86A2.48,2.48,0,0,1,142.14,113.8Z" style="fill: rgb(56, 211, 159); transform-origin: 143.33px 112.7px;" id="el8x3qf8o2pma" class="animable"></path><path d="M146.8,113.92a1.08,1.08,0,0,1-.62.17,1,1,0,0,1-1.09-1L145,112h-.41l-.06-.61h.42l-.06-.65h.78l.06.65h.67l.05.61h-.67l.1,1.09a.35.35,0,0,0,.36.36.52.52,0,0,0,.31-.1Z" style="fill: rgb(56, 211, 159); transform-origin: 145.665px 112.417px;" id="elkdv2mqtegi" class="animable"></path><path d="M151.63,110.54l.3,3.51h-.66l-1.94-2.13.19,2.13h-.8l-.31-3.51h.67l1.93,2.13-.19-2.13Z" style="fill: rgb(56, 211, 159); transform-origin: 150.17px 112.295px;" id="ely1rklym8wwo" class="animable"></path><path d="M155,112.51l.14,1.54h-.74l0-.34a.81.81,0,0,1-.79.38,1,1,0,0,1-1.08-.82c0-.47.27-.8,1.09-.8h.62c0-.34-.25-.53-.67-.53a1.15,1.15,0,0,0-.75.25l-.33-.55a1.91,1.91,0,0,1,1.13-.33A1.23,1.23,0,0,1,155,112.51Zm-.72.69,0-.28h-.54c-.36,0-.47.14-.45.32s.19.32.47.32A.52.52,0,0,0,154.23,113.2Z" style="fill: rgb(56, 211, 159); transform-origin: 153.815px 112.698px;" id="el74gyjxyfqv3" class="animable"></path><path d="M160.2,112.51l.14,1.54h-.78l-.13-1.42c0-.44-.25-.64-.56-.64s-.58.23-.54.71l.12,1.35h-.78l-.12-1.42c0-.44-.24-.64-.57-.64s-.57.23-.53.71l.12,1.35h-.78l-.24-2.69h.75l0,.3a1,1,0,0,1,.81-.35,1.13,1.13,0,0,1,.93.44,1.1,1.1,0,0,1,.93-.44A1.16,1.16,0,0,1,160.2,112.51Z" style="fill: rgb(56, 211, 159); transform-origin: 157.945px 112.679px;" id="elkqmwufhxgp" class="animable"></path><path d="M163.59,112.92h-2a.8.8,0,0,0,.82.54.82.82,0,0,0,.65-.26l.46.45a1.3,1.3,0,0,1-1.08.44,1.55,1.55,0,0,1-1.65-1.39,1.24,1.24,0,0,1,1.31-1.39,1.58,1.58,0,0,1,1.53,1.61Zm-2.09-.45h1.33a.72.72,0,0,0-.71-.56A.57.57,0,0,0,161.5,112.47Z" style="fill: rgb(56, 211, 159); transform-origin: 162.205px 112.701px;" id="elqkrj5icfs1" class="animable"></path><path d="M144.18,180.25l.06.65h-2.71l-.31-3.5h2.65l.06.65h-1.85l.07.76h1.63l.05.63h-1.62l.07.81Z" style="fill: rgb(56, 211, 159); transform-origin: 142.73px 179.15px;" id="elrgtmz50rhbl" class="animable"></path><path d="M149.24,179.36l.14,1.54h-.78l-.13-1.42c0-.44-.25-.64-.56-.64s-.58.23-.54.71l.12,1.35h-.78l-.12-1.42c0-.44-.24-.64-.57-.64s-.57.23-.53.71l.12,1.35h-.78l-.24-2.69h.75l0,.31a1,1,0,0,1,.81-.35,1.1,1.1,0,0,1,.93.44,1.08,1.08,0,0,1,.93-.44A1.15,1.15,0,0,1,149.24,179.36Z" style="fill: rgb(56, 211, 159); transform-origin: 146.985px 179.534px;" id="elq381fzq7van" class="animable"></path><path d="M152.32,179.36l.14,1.54h-.73l0-.34a.81.81,0,0,1-.79.38,1,1,0,0,1-1.08-.82c0-.47.27-.8,1.09-.8h.62c0-.34-.25-.53-.67-.53a1.15,1.15,0,0,0-.75.25l-.33-.55a1.91,1.91,0,0,1,1.13-.32A1.23,1.23,0,0,1,152.32,179.36Zm-.72.69,0-.28H151c-.36,0-.47.14-.45.32s.19.32.47.32A.52.52,0,0,0,151.6,180.05Z" style="fill: rgb(56, 211, 159); transform-origin: 151.14px 179.554px;" id="eljd7c424jrei" class="animable"></path><path d="M152.76,177.4a.4.4,0,0,1,.44-.44.49.49,0,0,1,.53.42.41.41,0,0,1-.45.45A.49.49,0,0,1,152.76,177.4Zm.16.81h.78l.24,2.69h-.78Z" style="fill: rgb(56, 211, 159); transform-origin: 153.349px 178.929px;" id="elaxhw30kagzl" class="animable"></path><path d="M154.34,177.19h.78l.32,3.71h-.78Z" style="fill: rgb(56, 211, 159); transform-origin: 154.89px 179.045px;" id="ell9pdpub0l8" class="animable"></path><path d="M139.7,133.57h-1.63l-.25.75H137l1.26-3.5h.8l1.87,3.5h-.85Zm-.31-.61-.68-1.34-.43,1.34Z" style="fill: rgb(56, 211, 159); transform-origin: 138.965px 132.57px;" id="elz14k93n54g" class="animable"></path><path d="M143.62,130.61l.33,3.71h-.75l0-.31a.93.93,0,0,1-.81.35A1.44,1.44,0,0,1,140.9,133a1.18,1.18,0,0,1,1.22-1.39,1.12,1.12,0,0,1,.83.33l-.11-1.31Zm-.56,2.37a.75.75,0,0,0-.75-.75.62.62,0,0,0-.62.75.75.75,0,0,0,.75.74A.61.61,0,0,0,143.06,133Z" style="fill: rgb(56, 211, 159); transform-origin: 142.415px 132.487px;" id="elat9ftma7cva" class="animable"></path><path d="M147.08,130.61l.33,3.71h-.75l0-.31a.93.93,0,0,1-.81.35,1.44,1.44,0,0,1-1.46-1.38,1.18,1.18,0,0,1,1.22-1.39,1.12,1.12,0,0,1,.83.33l-.11-1.31Zm-.56,2.37a.75.75,0,0,0-.75-.75.62.62,0,0,0-.62.75.75.75,0,0,0,.75.74A.61.61,0,0,0,146.52,133Z" style="fill: rgb(56, 211, 159); transform-origin: 145.89px 132.487px;" id="elrgiwujfiyb" class="animable"></path><path d="M149.56,131.59l.06.72h-.18c-.43,0-.69.24-.65.75l.11,1.27h-.78l-.23-2.69h.74l0,.36A1,1,0,0,1,149.56,131.59Z" style="fill: rgb(56, 211, 159); transform-origin: 148.755px 132.957px;" id="elyy4ucdvaqfn" class="animable"></path><path d="M152.76,133.2h-2a.8.8,0,0,0,.82.54.86.86,0,0,0,.65-.26l.46.45a1.32,1.32,0,0,1-1.08.43,1.54,1.54,0,0,1-1.65-1.38,1.23,1.23,0,0,1,1.31-1.39,1.47,1.47,0,0,1,1.52,1.4A1.41,1.41,0,0,1,152.76,133.2Zm-2.09-.46H152a.72.72,0,0,0-.71-.56A.58.58,0,0,0,150.67,132.74Z" style="fill: rgb(56, 211, 159); transform-origin: 151.37px 132.976px;" id="el9cthtzqha0s" class="animable"></path><path d="M153.11,134.07l.21-.56a1.91,1.91,0,0,0,1,.26c.36,0,.48-.09.47-.24,0-.44-1.63,0-1.72-1.07,0-.51.38-.87,1.17-.87a2.37,2.37,0,0,1,1.06.24l-.21.55a1.66,1.66,0,0,0-.8-.2c-.35,0-.49.11-.48.25,0,.46,1.63,0,1.72,1.08,0,.5-.39.85-1.19.85A2.37,2.37,0,0,1,153.11,134.07Z" style="fill: rgb(56, 211, 159); transform-origin: 154.3px 132.976px;" id="elt140cyk1ja" class="animable"></path><path d="M155.76,134.07l.21-.56a1.94,1.94,0,0,0,1,.26c.36,0,.49-.09.48-.24,0-.44-1.63,0-1.73-1.07,0-.51.39-.87,1.17-.87a2.33,2.33,0,0,1,1.06.24l-.21.55a1.65,1.65,0,0,0-.79-.2c-.35,0-.49.11-.48.25,0,.46,1.63,0,1.72,1.08,0,.5-.39.85-1.2.85A2.43,2.43,0,0,1,155.76,134.07Z" style="fill: rgb(56, 211, 159); transform-origin: 156.955px 132.976px;" id="el0wlvrskspnz" class="animable"></path><path d="M146.3,200.69c.07.78-.48,1.26-1.41,1.26h-.71l.09,1h-.82l-.3-3.5h1.51A1.45,1.45,0,0,1,146.3,200.69Zm-.82,0c0-.39-.31-.61-.8-.61H144l.1,1.21h.66C145.28,201.29,145.51,201.07,145.48,200.69Z" style="fill: rgb(56, 211, 159); transform-origin: 144.728px 201.193px;" id="eldpkg70j5x6s" class="animable"></path><path d="M149.23,201.38l.14,1.54h-.73l0-.34a.81.81,0,0,1-.79.38,1,1,0,0,1-1.08-.82c0-.47.27-.8,1.09-.8h.62c0-.34-.25-.53-.67-.53a1.17,1.17,0,0,0-.75.25l-.33-.55a1.93,1.93,0,0,1,1.13-.32A1.23,1.23,0,0,1,149.23,201.38Zm-.72.69,0-.28H148c-.36,0-.47.14-.45.32s.19.32.47.32A.52.52,0,0,0,148.51,202.07Z" style="fill: rgb(56, 211, 159); transform-origin: 148.05px 201.574px;" id="elclzvgv760pi" class="animable"></path><path d="M149.79,202.67l.21-.56a2,2,0,0,0,1,.26c.36,0,.49-.1.47-.25,0-.44-1.62,0-1.72-1.06,0-.51.39-.87,1.17-.87a2.36,2.36,0,0,1,1.06.23l-.21.56a1.66,1.66,0,0,0-.8-.2c-.35,0-.49.11-.47.25,0,.46,1.62,0,1.72,1.07,0,.5-.39.86-1.2.86A2.48,2.48,0,0,1,149.79,202.67Z" style="fill: rgb(56, 211, 159); transform-origin: 150.985px 201.575px;" id="elgwfof20v0y7" class="animable"></path><path d="M152.44,202.67l.21-.56a2.05,2.05,0,0,0,1,.26c.36,0,.49-.1.48-.25,0-.44-1.63,0-1.72-1.06-.05-.51.38-.87,1.17-.87a2.32,2.32,0,0,1,1.05.23l-.21.56a1.65,1.65,0,0,0-.79-.2c-.35,0-.49.11-.48.25,0,.46,1.63,0,1.72,1.07,0,.5-.39.86-1.2.86A2.54,2.54,0,0,1,152.44,202.67Z" style="fill: rgb(56, 211, 159); transform-origin: 153.638px 201.575px;" id="ellud4spvgl5" class="animable"></path><path d="M159.42,200.23l-.74,2.69h-.75l-.75-1.67-.48,1.67H156l-1.21-2.69h.73l.8,1.82.5-1.82h.66l.8,1.82.5-1.82Z" style="fill: rgb(56, 211, 159); transform-origin: 157.105px 201.575px;" id="elfk4m2dl86tc" class="animable"></path><path d="M159.62,201.57a1.25,1.25,0,0,1,1.36-1.38,1.53,1.53,0,0,1,1.6,1.38,1.25,1.25,0,0,1-1.36,1.39A1.54,1.54,0,0,1,159.62,201.57Zm2.17,0a.75.75,0,0,0-.75-.74.62.62,0,0,0-.63.74.76.76,0,0,0,.76.75A.62.62,0,0,0,161.79,201.57Z" style="fill: rgb(56, 211, 159); transform-origin: 161.101px 201.575px;" id="el0uubh1lasihl" class="animable"></path><path d="M164.65,200.19l.06.72h-.18c-.43,0-.69.23-.65.75l.12,1.27h-.79l-.23-2.69h.74l0,.35A1,1,0,0,1,164.65,200.19Z" style="fill: rgb(56, 211, 159); transform-origin: 163.845px 201.556px;" id="ela276h2fh5lu" class="animable"></path><path d="M167.74,199.21l.33,3.71h-.75l0-.31a1,1,0,0,1-.81.35,1.44,1.44,0,0,1-1.46-1.39,1.18,1.18,0,0,1,1.22-1.38,1.15,1.15,0,0,1,.84.32l-.12-1.3Zm-.56,2.36a.75.75,0,0,0-.75-.74.61.61,0,0,0-.62.74.75.75,0,0,0,.75.75A.62.62,0,0,0,167.18,201.57Z" style="fill: rgb(56, 211, 159); transform-origin: 166.551px 201.086px;" id="elc1riglu2txa" class="animable"></path><path d="M283.22,216.53H263.49a7.53,7.53,0,0,1-7.36-6.76h0A6.1,6.1,0,0,1,262.3,203H282a7.54,7.54,0,0,1,7.36,6.77h0A6.1,6.1,0,0,1,283.22,216.53Z" style="fill: rgb(56, 211, 159); transform-origin: 272.744px 209.765px;" id="elk5a5adbk69o" class="animable"></path><path d="M266.45,211.23l.22-.62a2.2,2.2,0,0,0,1.19.37c.48,0,.66-.16.64-.38-.05-.65-2.05-.2-2.17-1.5-.05-.6.39-1.09,1.38-1.09a2.47,2.47,0,0,1,1.25.31l-.2.61a2.14,2.14,0,0,0-1-.27c-.48,0-.65.18-.63.4.05.64,2.05.2,2.16,1.48.05.59-.39,1.09-1.39,1.09A2.77,2.77,0,0,1,266.45,211.23Z" style="fill: rgb(255, 255, 255); transform-origin: 267.81px 209.82px;" id="el7oeelua0src" class="animable"></path><path d="M272.14,210l.13,1.53h-.73l0-.34a.79.79,0,0,1-.79.38,1,1,0,0,1-1.07-.82c0-.47.26-.8,1.08-.8h.62c0-.34-.24-.53-.66-.53a1.18,1.18,0,0,0-.76.25l-.33-.55a2,2,0,0,1,1.14-.32A1.23,1.23,0,0,1,272.14,210Zm-.72.68,0-.28h-.53c-.37,0-.47.14-.46.32s.2.33.47.33A.54.54,0,0,0,271.42,210.72Z" style="fill: rgb(255, 255, 255); transform-origin: 270.95px 210.185px;" id="elji81i01n2nq" class="animable"></path><path d="M275.36,208.88l-.9,2.69h-.8l-1.37-2.69h.8l.91,1.83.61-1.83Z" style="fill: rgb(255, 255, 255); transform-origin: 273.825px 210.225px;" id="eln696h1vo3m" class="animable"></path><path d="M278.36,210.44h-2a.78.78,0,0,0,.81.54.83.83,0,0,0,.66-.26l.45.46a1.3,1.3,0,0,1-1.07.43,1.56,1.56,0,0,1-1.66-1.39,1.24,1.24,0,0,1,1.32-1.38,1.5,1.5,0,0,1,1.52,1.6Zm-2.08-.45h1.32a.71.71,0,0,0-.71-.56A.57.57,0,0,0,276.28,210Z" style="fill: rgb(255, 255, 255); transform-origin: 276.968px 210.225px;" id="el6smz7uxa1w2" class="animable"></path><path d="M320.77,216.53H301a7.53,7.53,0,0,1-7.36-6.76h0a6.11,6.11,0,0,1,6.18-6.77h19.73a7.54,7.54,0,0,1,7.36,6.77h0A6.09,6.09,0,0,1,320.77,216.53Z" style="fill: rgb(56, 211, 159); transform-origin: 310.276px 209.765px;" id="elw1725hwztw" class="animable"></path><path d="M298.59,209.82a1.62,1.62,0,0,1,1.74-1.81,2,2,0,0,1,1.49.62l-.47.48a1.25,1.25,0,0,0-.92-.41,1,1,0,0,0-1,1.12,1.19,1.19,0,0,0,1.22,1.12,1,1,0,0,0,.84-.42l.56.48a1.63,1.63,0,0,1-1.39.63A2,2,0,0,1,298.59,209.82Z" style="fill: rgb(255, 255, 255); transform-origin: 300.314px 209.819px;" id="el4lxbxfkx3yl" class="animable"></path><path d="M302.16,210.22a1.24,1.24,0,0,1,1.36-1.38,1.53,1.53,0,0,1,1.59,1.38,1.25,1.25,0,0,1-1.35,1.39A1.53,1.53,0,0,1,302.16,210.22Zm2.16,0a.75.75,0,0,0-.75-.74.61.61,0,0,0-.62.74.75.75,0,0,0,.75.75A.62.62,0,0,0,304.32,210.22Z" style="fill: rgb(255, 255, 255); transform-origin: 303.635px 210.224px;" id="el6p1ix8lvkyv" class="animable"></path><path d="M308.37,210l.13,1.54h-.78l-.12-1.42c0-.44-.26-.64-.6-.64s-.63.23-.59.73l.12,1.33h-.78l-.24-2.69h.75l0,.31a1.07,1.07,0,0,1,.86-.35A1.17,1.17,0,0,1,308.37,210Z" style="fill: rgb(255, 255, 255); transform-origin: 307.005px 210.174px;" id="el5han83xgzco" class="animable"></path><path d="M310.93,211.44a1,1,0,0,1-.62.17,1,1,0,0,1-1.09-1l-.1-1.11h-.41l-.06-.6h.42l-.06-.66h.78l.06.66h.67l.05.6h-.67l.1,1.09a.35.35,0,0,0,.36.36.52.52,0,0,0,.31-.1Z" style="fill: rgb(255, 255, 255); transform-origin: 309.79px 209.927px;" id="elpxrinc5vsi" class="animable"></path><path d="M311,208.07a.4.4,0,0,1,.45-.44.48.48,0,0,1,.52.42.41.41,0,0,1-.45.45A.49.49,0,0,1,311,208.07Zm.16.81h.78l.24,2.69h-.78Z" style="fill: rgb(255, 255, 255); transform-origin: 311.589px 209.598px;" id="el5e2g0on6ghg" class="animable"></path><path d="M315.5,210l.14,1.54h-.78l-.13-1.42c0-.44-.25-.64-.6-.64s-.63.23-.58.73l.11,1.33h-.78l-.23-2.69h.74l0,.31a1.09,1.09,0,0,1,.86-.35A1.16,1.16,0,0,1,315.5,210Z" style="fill: rgb(255, 255, 255); transform-origin: 314.145px 210.173px;" id="el53t7mlxqrwu" class="animable"></path><path d="M318.82,208.88l.23,2.69h-.74l0-.32a1,1,0,0,1-.8.36,1.19,1.19,0,0,1-1.26-1.21l-.13-1.52h.78l.12,1.41c0,.44.26.65.6.65s.6-.24.56-.73l-.12-1.33Z" style="fill: rgb(255, 255, 255); transform-origin: 317.585px 210.246px;" id="ela3vfxsn5n8" class="animable"></path><path d="M322.3,210.44h-2a.79.79,0,0,0,.82.54.82.82,0,0,0,.65-.26l.46.46a1.32,1.32,0,0,1-1.08.43,1.55,1.55,0,0,1-1.65-1.39,1.23,1.23,0,0,1,1.31-1.38,1.57,1.57,0,0,1,1.53,1.6Zm-2.09-.45h1.33a.72.72,0,0,0-.71-.56A.58.58,0,0,0,320.21,210Z" style="fill: rgb(255, 255, 255); transform-origin: 320.915px 210.225px;" id="elqszbb9hb149" class="animable"></path><path d="M242.05,179.84c-.08-.87.68-1.5,1.77-1.5a2.17,2.17,0,0,1,1.49.51l-.49.4a1.35,1.35,0,0,0-.91-.34c-.65,0-1.09.38-1,.93a1.1,1.1,0,0,0,1.2.93,1.14,1.14,0,0,0,.86-.34l.55.4a2.14,2.14,0,0,1-3.43-1Z" style="fill: rgb(56, 211, 159); transform-origin: 243.782px 179.838px;" id="elrd2fqxq5y1o" class="animable"></path><path d="M245.62,180.18c-.06-.67.52-1.15,1.38-1.15a1.43,1.43,0,0,1,1.57,1.15c.06.67-.52,1.15-1.37,1.15A1.43,1.43,0,0,1,245.62,180.18Zm2.16,0a.69.69,0,0,0-.74-.62c-.39,0-.67.23-.63.62a.69.69,0,0,0,.74.62A.56.56,0,0,0,247.78,180.18Z" style="fill: rgb(56, 211, 159); transform-origin: 247.095px 180.181px;" id="elfr41kndykve" class="animable"></path><path d="M251.83,180l.11,1.27h-.78l-.1-1.17a.53.53,0,0,0-.59-.53c-.38,0-.63.19-.6.6l.1,1.1h-.78l-.2-2.23h.75l0,.26a1.23,1.23,0,0,1,.87-.29A1.08,1.08,0,0,1,251.83,180Z" style="fill: rgb(56, 211, 159); transform-origin: 250.465px 180.135px;" id="elqvspo1n2r2" class="animable"></path><path d="M254.37,181.19a1.26,1.26,0,0,1-.62.14c-.64,0-1-.27-1.08-.8l-.08-.92h-.41l-.05-.5h.42l-.05-.54h.78l.05.54H254l0,.5h-.67l.08.91a.32.32,0,0,0,.36.29.59.59,0,0,0,.31-.08Z" style="fill: rgb(56, 211, 159); transform-origin: 253.25px 179.95px;" id="elx7k3lx6kab" class="animable"></path><path d="M257.09,180l.11,1.27h-.73l0-.27a.9.9,0,0,1-.8.31c-.63,0-1-.29-1.06-.68s.27-.67,1.09-.67h.63c0-.27-.24-.44-.66-.44a1.36,1.36,0,0,0-.76.21l-.32-.45a2.21,2.21,0,0,1,1.14-.27C256.53,179,257,179.34,257.09,180Zm-.73.57,0-.23h-.54c-.36,0-.47.11-.45.26s.18.27.46.27A.54.54,0,0,0,256.36,180.59Z" style="fill: rgb(56, 211, 159); transform-origin: 255.895px 180.163px;" id="el8ww8jojbe3g" class="animable"></path><path d="M257.64,180.18c-.06-.67.52-1.15,1.4-1.15a1.4,1.4,0,0,1,1.25.57l-.58.27a.78.78,0,0,0-.63-.31c-.4,0-.69.23-.65.62a.7.7,0,0,0,.76.62.61.61,0,0,0,.57-.31l.63.27a1.18,1.18,0,0,1-1.15.57C258.36,181.33,257.69,180.85,257.64,180.18Z" style="fill: rgb(56, 211, 159); transform-origin: 259.013px 180.181px;" id="elmhoz7nal8ms" class="animable"></path><path d="M262.66,181.19a1.33,1.33,0,0,1-.63.14c-.63,0-1-.27-1.07-.8l-.08-.92h-.42l0-.5h.41l-.05-.54h.79l0,.54h.67l.05.5h-.67l.08.91c0,.19.15.29.36.29a.62.62,0,0,0,.31-.08Z" style="fill: rgb(56, 211, 159); transform-origin: 261.56px 179.95px;" id="el9iwkesjj54v" class="animable"></path><path d="M267.53,178.39l.26,2.9h-.67l-1.9-1.76.15,1.76h-.8l-.25-2.9H265l1.9,1.76-.16-1.76Z" style="fill: rgb(56, 211, 159); transform-origin: 266.055px 179.84px;" id="elhzgnxxvwiwj" class="animable"></path><path d="M271.08,179.06l.19,2.23h-.74l0-.26a1.14,1.14,0,0,1-.81.3,1.09,1.09,0,0,1-1.24-1l-.11-1.26h.78l.1,1.17a.53.53,0,0,0,.59.54.51.51,0,0,0,.57-.6l-.09-1.11Z" style="fill: rgb(56, 211, 159); transform-origin: 269.82px 180.2px;" id="elvhbjduc04r9" class="animable"></path><path d="M276.43,180l.11,1.27h-.78l-.1-1.17a.51.51,0,0,0-.56-.53.48.48,0,0,0-.54.58l.1,1.12h-.78l-.11-1.17a.5.5,0,0,0-.55-.53.48.48,0,0,0-.54.58l.09,1.12H272l-.19-2.23h.74l0,.26a1.11,1.11,0,0,1,.82-.29,1.18,1.18,0,0,1,.91.36,1.23,1.23,0,0,1,.94-.36A1.06,1.06,0,0,1,276.43,180Z" style="fill: rgb(56, 211, 159); transform-origin: 274.175px 180.135px;" id="el0ibjb2d5zk5" class="animable"></path><path d="M280.07,180.18c.07.7-.48,1.15-1.24,1.15A1.27,1.27,0,0,1,278,181l0,.25h-.74l-.27-3.07h.78l.09,1.08a1.11,1.11,0,0,1,.79-.27A1.33,1.33,0,0,1,280.07,180.18Zm-.79,0a.69.69,0,0,0-.74-.62.56.56,0,0,0-.63.62.7.7,0,0,0,.74.62A.56.56,0,0,0,279.28,180.18Z" style="fill: rgb(56, 211, 159); transform-origin: 278.533px 179.755px;" id="elvvik1iyl4s" class="animable"></path><path d="M283.23,180.36h-2a.79.79,0,0,0,.81.45.92.92,0,0,0,.66-.22l.45.38a1.49,1.49,0,0,1-1.08.36c-.93,0-1.58-.49-1.64-1.15s.52-1.15,1.34-1.15a1.37,1.37,0,0,1,1.5,1.16Zm-2.08-.38h1.33a.69.69,0,0,0-.71-.46A.55.55,0,0,0,281.15,180Z" style="fill: rgb(56, 211, 159); transform-origin: 281.848px 180.178px;" id="el63wkr43hptq" class="animable"></path><path d="M285.32,179l.05.6h-.18c-.43,0-.7.19-.66.62l.09,1h-.78l-.19-2.23h.74l0,.3A1.09,1.09,0,0,1,285.32,179Z" style="fill: rgb(56, 211, 159); transform-origin: 284.51px 180.103px;" id="elyg7caem4ke" class="animable"></path><path d="M139.06,155.79l.23-.5a2.49,2.49,0,0,0,1.18.3c.48,0,.66-.13.65-.31-.05-.54-2.05-.17-2.15-1.25,0-.49.4-.9,1.4-.9a2.89,2.89,0,0,1,1.24.25l-.21.51a2.47,2.47,0,0,0-1-.22c-.48,0-.65.14-.63.33,0,.53,2.05.16,2.14,1.23,0,.49-.41.9-1.41.9A3,3,0,0,1,139.06,155.79Z" style="fill: rgb(56, 211, 159); transform-origin: 140.44px 154.63px;" id="el3amkk2cb0bs" class="animable"></path><path d="M144.22,156a1.16,1.16,0,0,1-.62.14c-.64,0-1-.27-1.08-.8l-.08-.91H142l0-.5h.42l-.05-.55h.78l.05.55h.67l0,.5h-.67l.08.9a.32.32,0,0,0,.36.3.59.59,0,0,0,.31-.08Z" style="fill: rgb(56, 211, 159); transform-origin: 143.11px 154.761px;" id="el6mvzclczcrc" class="animable"></path><path d="M146.94,154.81l.11,1.27h-.73l0-.28c-.12.21-.39.31-.79.31-.63,0-1-.29-1.06-.67s.27-.67,1.09-.67h.62c0-.28-.24-.44-.66-.44a1.35,1.35,0,0,0-.75.21l-.32-.46a2.27,2.27,0,0,1,1.13-.27C146.38,153.81,146.88,154.13,146.94,154.81Zm-.73.57,0-.23h-.54c-.36,0-.47.11-.46.26s.19.27.47.27A.55.55,0,0,0,146.21,155.38Z" style="fill: rgb(56, 211, 159); transform-origin: 145.75px 154.96px;" id="eloexmvota2h" class="animable"></path><path d="M149.48,156a1.16,1.16,0,0,1-.62.14c-.64,0-1-.27-1.08-.8l-.08-.91h-.42l0-.5h.42l0-.55h.78l.05.55h.67l0,.5h-.67l.08.9a.32.32,0,0,0,.36.3.59.59,0,0,0,.31-.08Z" style="fill: rgb(56, 211, 159); transform-origin: 148.38px 154.761px;" id="el10wkndo9hrj" class="animable"></path><path d="M152.38,155.15h-2a.8.8,0,0,0,.81.45,1,1,0,0,0,.65-.22l.45.37a1.44,1.44,0,0,1-1.08.36c-.93,0-1.58-.48-1.64-1.15s.52-1.15,1.34-1.15a1.37,1.37,0,0,1,1.5,1.16A1.08,1.08,0,0,1,152.38,155.15Zm-2.08-.38h1.33a.69.69,0,0,0-.7-.47C150.57,154.3,150.33,154.48,150.3,154.77Z" style="fill: rgb(56, 211, 159); transform-origin: 150.988px 154.959px;" id="ell3e6ob9q72" class="animable"></path><path d="M236.21,110.54H237l.25,2.85H239l.05.66h-2.56Z" style="fill: rgb(56, 211, 159); transform-origin: 237.63px 112.295px;" id="elmlvfaslwzhb" class="animable"></path><path d="M241.76,112.51l.13,1.54h-.73l0-.34a.79.79,0,0,1-.79.38,1,1,0,0,1-1.07-.82c0-.47.26-.8,1.08-.8H241c0-.34-.24-.53-.66-.53a1.18,1.18,0,0,0-.76.25l-.33-.55a2,2,0,0,1,1.14-.33A1.23,1.23,0,0,1,241.76,112.51Zm-.72.69,0-.28h-.53c-.37,0-.47.14-.46.32s.2.32.47.32A.53.53,0,0,0,241,113.2Z" style="fill: rgb(56, 211, 159); transform-origin: 240.57px 112.7px;" id="el5zo52nupexo" class="animable"></path><path d="M242.31,113.8l.21-.56a2.05,2.05,0,0,0,1,.26c.36,0,.49-.1.48-.25,0-.44-1.63,0-1.72-1.06-.05-.51.38-.88,1.17-.88a2.29,2.29,0,0,1,1.05.24l-.21.56a1.65,1.65,0,0,0-.79-.2c-.35,0-.49.11-.48.25,0,.46,1.63,0,1.72,1.07,0,.5-.39.86-1.2.86A2.54,2.54,0,0,1,242.31,113.8Z" style="fill: rgb(56, 211, 159); transform-origin: 243.508px 112.7px;" id="elto83boas5fi" class="animable"></path><path d="M247,113.92a1.14,1.14,0,0,1-.63.17,1,1,0,0,1-1.09-1l-.09-1.1h-.42l-.05-.61h.41l-.05-.65h.78l.06.65h.67l.05.61H246l.09,1.09a.35.35,0,0,0,.37.36.52.52,0,0,0,.31-.1Z" style="fill: rgb(56, 211, 159); transform-origin: 245.86px 112.412px;" id="eluhcsntj0slk" class="animable"></path><path d="M251.8,110.54l.31,3.51h-.67l-1.93-2.13.19,2.13h-.81l-.3-3.51h.67l1.93,2.13-.19-2.13Z" style="fill: rgb(56, 211, 159); transform-origin: 250.35px 112.295px;" id="elybp2ga66zu" class="animable"></path><path d="M255.13,112.51l.13,1.54h-.73l0-.34a.79.79,0,0,1-.79.38,1,1,0,0,1-1.07-.82c0-.47.26-.8,1.08-.8h.62c0-.34-.24-.53-.66-.53a1.18,1.18,0,0,0-.76.25l-.33-.55a2,2,0,0,1,1.14-.33A1.23,1.23,0,0,1,255.13,112.51Zm-.72.69,0-.28h-.53c-.37,0-.47.14-.46.32s.2.32.47.32A.53.53,0,0,0,254.41,113.2Z" style="fill: rgb(56, 211, 159); transform-origin: 253.94px 112.7px;" id="elyntkch7epwo" class="animable"></path><path d="M260.38,112.51l.13,1.54h-.78l-.12-1.42c0-.44-.25-.64-.57-.64s-.57.23-.53.71l.12,1.35h-.78l-.13-1.42c0-.44-.24-.64-.56-.64s-.57.23-.53.71l.12,1.35H256l-.23-2.69h.74l0,.3a1,1,0,0,1,.82-.35,1.19,1.19,0,0,0,1.85,0A1.16,1.16,0,0,1,260.38,112.51Z" style="fill: rgb(56, 211, 159); transform-origin: 258.14px 112.679px;" id="elw7hofwl6vmn" class="animable"></path><path d="M263.76,112.92h-2a.78.78,0,0,0,.82.54.82.82,0,0,0,.65-.26l.45.45a1.26,1.26,0,0,1-1.07.44,1.56,1.56,0,0,1-1.66-1.39,1.25,1.25,0,0,1,1.32-1.39,1.51,1.51,0,0,1,1.52,1.61Zm-2.08-.45H263a.71.71,0,0,0-.71-.56A.57.57,0,0,0,261.68,112.47Z" style="fill: rgb(56, 211, 159); transform-origin: 262.368px 112.701px;" id="eljk1efkt8tqh" class="animable"></path><polygon points="230.17 125.16 136.2 125.16 135.49 117.08 229.46 117.08 230.17 125.16" style="fill: rgb(255, 255, 255); transform-origin: 182.83px 121.12px;" id="elvpffdc88cch" class="animable"></polygon><polygon points="233.83 167.01 139.86 167.01 139.15 158.93 233.13 158.93 233.83 167.01" style="fill: rgb(255, 255, 255); transform-origin: 186.49px 162.97px;" id="el0vtal5gdffqm" class="animable"></polygon><polygon points="235.97 191.47 142 191.47 141.29 183.39 235.27 183.39 235.97 191.47" style="fill: rgb(255, 255, 255); transform-origin: 188.63px 187.43px;" id="elaoywus4gqk6" class="animable"></polygon><polygon points="237.93 213.81 143.96 213.81 143.25 205.73 237.22 205.73 237.93 213.81" style="fill: rgb(255, 255, 255); transform-origin: 190.59px 209.77px;" id="el4r9h0vf6nka" class="animable"></polygon><polygon points="337.03 191.47 243.05 191.47 242.35 183.39 336.32 183.39 337.03 191.47" style="fill: rgb(255, 255, 255); transform-origin: 289.69px 187.43px;" id="el2pduukuwfai" class="animable"></polygon><polygon points="332.97 145.12 137.94 145.12 137.24 137.04 332.26 137.04 332.97 145.12" style="fill: rgb(255, 255, 255); transform-origin: 235.105px 141.08px;" id="elvykved1lbs" class="animable"></polygon><polygon points="331.23 125.16 237.25 125.16 236.55 117.08 330.52 117.08 331.23 125.16" style="fill: rgb(255, 255, 255); transform-origin: 283.89px 121.12px;" id="elyoyyv1eqrv" class="animable"></polygon><polygon points="264.47 190.62 257.22 190.62 256.64 183.95 263.88 183.95 264.47 190.62" style="fill: rgb(224, 224, 224); transform-origin: 260.555px 187.285px;" id="elvpa6mx3fa" class="animable"></polygon><polygon points="262.78 186.15 260.72 188.72 258.2 186.15 262.78 186.15" style="fill: rgb(38, 50, 56); transform-origin: 260.49px 187.435px;" id="eld4wubsntywm" class="animable"></polygon><path d="M247.34,187.43h-.87l.07.85h-.64l-.08-.85H245l-.05-.61h.86l-.07-.85h.64l.08.85h.87Z" style="fill: rgb(38, 50, 56); transform-origin: 246.145px 187.125px;" id="el6w7v4z5gkmj" class="animable"></path><path d="M250.36,187.81c0,.59-.36,1.13-1.35,1.13a2.58,2.58,0,0,1-1.37-.38l.26-.62a1.82,1.82,0,0,0,1,.32c.4,0,.64-.17.61-.45s-.23-.43-.69-.43h-.37l0-.54.65-.81h-1.49l-.06-.65H250l0,.52-.71.9A1.11,1.11,0,0,1,250.36,187.81Z" style="fill: rgb(38, 50, 56); transform-origin: 248.955px 187.16px;" id="elcb29a89wtl6" class="animable"></path><path d="M253.36,188.22l.06.66h-2.65l-.05-.53,1.24-1.27c.29-.3.33-.48.31-.65s-.23-.43-.6-.43a.76.76,0,0,0-.69.35l-.62-.38a1.46,1.46,0,0,1,1.33-.65c.78,0,1.34.4,1.39,1a1.29,1.29,0,0,1-.49,1.11l-.74.76Z" style="fill: rgb(38, 50, 56); transform-origin: 251.89px 187.098px;" id="elkk5tb0xa93l" class="animable"></path><polygon points="316.54 188.92 268.78 188.92 268.54 186.15 316.3 186.15 316.54 188.92" style="fill: rgb(38, 50, 56); transform-origin: 292.54px 187.535px;" id="elnwjdk2vyutb" class="animable"></polygon><polygon points="192.03 188.92 144.26 188.92 144.02 186.15 191.78 186.15 192.03 188.92" style="fill: rgb(38, 50, 56); transform-origin: 168.025px 187.535px;" id="el775nton6yjb" class="animable"></polygon><polygon points="163.98 164.35 142.12 164.35 141.87 161.59 163.73 161.59 163.98 164.35" style="fill: rgb(38, 50, 56); transform-origin: 152.925px 162.97px;" id="elck0oojmvsq6" class="animable"></polygon><polygon points="160.31 122.5 138.45 122.5 138.21 119.74 160.07 119.74 160.31 122.5" style="fill: rgb(38, 50, 56); transform-origin: 149.26px 121.12px;" id="elpl9o0olztr" class="animable"></polygon><polygon points="261.8 122.5 239.94 122.5 239.69 119.74 261.55 119.74 261.8 122.5" style="fill: rgb(38, 50, 56); transform-origin: 250.745px 121.12px;" id="el3fuotvlcx5g" class="animable"></polygon><polygon points="312.48 142.47 140.2 142.47 139.96 139.7 312.24 139.7 312.48 142.47" style="fill: rgb(38, 50, 56); transform-origin: 226.22px 141.085px;" id="el89c557aklvx" class="animable"></polygon><path d="M149,210l.8.41-.29.58-.81-.46.08.85h-.65l-.07-.86-.73.47-.39-.58.73-.41-.8-.42.29-.58.81.47-.09-.86h.66l.06.86.73-.47.4.58Z" style="fill: rgb(38, 50, 56); transform-origin: 148.335px 209.995px;" id="ell10s3pubku" class="animable"></path><path d="M154.06,210l.8.41-.29.58-.81-.46.08.85h-.65l-.07-.86-.73.47-.39-.58.73-.41-.8-.42.28-.58.82.47-.09-.86h.66l.06.86.73-.47.4.58Z" style="fill: rgb(38, 50, 56); transform-origin: 153.395px 209.995px;" id="ellrn94b33ha" class="animable"></path><path d="M159.08,210l.8.41-.3.58-.81-.46.09.85h-.66l-.06-.86-.73.47-.39-.58.73-.41-.8-.42.28-.58.81.47-.08-.86h.66l.06.86.73-.47.39.58Z" style="fill: rgb(38, 50, 56); transform-origin: 158.415px 209.995px;" id="elvjlhpymud" class="animable"></path><path d="M164.1,210l.8.41-.3.58-.81-.46.09.85h-.66l-.06-.86-.73.47-.39-.58.73-.41-.8-.42.28-.58.81.47-.08-.86h.66l.06.86.73-.47.39.58Z" style="fill: rgb(38, 50, 56); transform-origin: 163.435px 209.995px;" id="eldjlryt2m1hf" class="animable"></path><path d="M169.12,210l.8.41-.3.58-.81-.46.09.85h-.66l-.07-.86-.73.47-.38-.58.73-.41-.8-.42.28-.58.81.47-.08-.86h.66l.06.86.73-.47.39.58Z" style="fill: rgb(38, 50, 56); transform-origin: 168.455px 209.995px;" id="el91lqw7wd4s" class="animable"></path><path d="M174.14,210l.79.41-.29.58-.81-.46.09.85h-.66l-.07-.86-.73.47-.38-.58.72-.41-.8-.42.29-.58.81.47-.08-.86h.66l.06.86.73-.47.39.58Z" style="fill: rgb(38, 50, 56); transform-origin: 173.465px 209.995px;" id="elt8gbl6l3ay" class="animable"></path><path d="M179.15,210l.8.41-.29.58-.81-.46.09.85h-.66l-.07-.86-.73.47-.38-.58.72-.41-.8-.42.29-.58.81.47-.08-.86h.66l.06.86.73-.47.39.58Z" style="fill: rgb(38, 50, 56); transform-origin: 178.485px 209.995px;" id="el6qc9ymura7p" class="animable"></path><g id="el0i5a3q0cn6ov"><polygon points="132.98 226.05 349.45 226.05 337.44 88.83 120.97 88.83 132.98 226.05" style="fill: rgb(255, 255, 255); opacity: 0.1; transform-origin: 235.21px 157.44px;" class="animable"></polygon></g><g id="elr6p0rry3dzb"><polygon points="167.68 78.58 209.97 236.72 195.74 236.72 153.93 78.58 167.68 78.58" style="fill: rgb(255, 255, 255); opacity: 0.1; isolation: isolate; transform-origin: 181.95px 157.65px;" class="animable"></polygon></g><g id="elfvuetjyklpg"><polygon points="145.73 78.58 188.01 236.72 159.8 236.72 117.99 78.58 145.73 78.58" style="fill: rgb(255, 255, 255); opacity: 0.1; isolation: isolate; transform-origin: 153px 157.65px;" class="animable"></polygon></g><g id="elun1pmy2i7xe"><rect x="139.02" y="74.32" width="6.16" height="1.28" style="fill: rgb(56, 211, 159); transform-origin: 142.1px 74.96px; transform: rotate(-0.572939deg);" class="animable"></rect></g><g id="elkicuis0148d"><rect x="150.64" y="74.18" width="17.88" height="1.28" style="fill: rgb(56, 211, 159); transform-origin: 159.58px 74.82px; transform: rotate(-0.48deg);" class="animable"></rect></g><g id="elhyemppdzaz"><path d="M359.83,160.6a5.94,5.94,0,0,1-6,6.59,7.34,7.34,0,0,1-7.17-6.59,6,6,0,0,1,6-6.59A7.34,7.34,0,0,1,359.83,160.6Z" style="opacity: 0.5; transform-origin: 353.248px 160.6px;" class="animable"></path></g><g id="elcrf5afba0od"><path d="M125.14,184h0a1.41,1.41,0,0,1-1.38-1.27l-4.38-50.08a1.15,1.15,0,0,1,1.16-1.27h0a1.41,1.41,0,0,1,1.38,1.27l4.38,50.08A1.15,1.15,0,0,1,125.14,184Z" style="opacity: 0.5; transform-origin: 122.84px 157.69px;" class="animable"></path></g></g><g id="freepik--Plant--inject-19" class="animable" style="transform-origin: 130.663px 370.38px;"><path d="M141.4,410H120.56l-2.31-4.37a76.09,76.09,0,0,1-8.85-34.44v-1.05h43.18a76.22,76.22,0,0,1-9.47,36.79Z" style="fill: rgb(56, 211, 159); transform-origin: 130.99px 390.07px;" id="elnknflkn8yzh" class="animable"></path><g id="elg6qi42gcffi"><path d="M141.4,410H120.56l-2.31-4.37a76.09,76.09,0,0,1-8.85-34.44v-1.05h43.18a76.22,76.22,0,0,1-9.47,36.79Z" style="fill: rgb(255, 255, 255); opacity: 0.7; transform-origin: 130.99px 390.07px;" class="animable"></path></g><path d="M96.37,371a22.81,22.81,0,0,0,13,3.95,3.43,3.43,0,0,0,1.61-.31,1.62,1.62,0,0,0,.85-1.46,2.31,2.31,0,0,0-1.14-1.61,37.8,37.8,0,0,0-9.45-5.14A36.1,36.1,0,0,0,96.12,365c-1.4-.29-2.89-1-4.31-1C91.54,367.05,94.32,369.63,96.37,371Z" style="fill: rgb(56, 211, 159); transform-origin: 101.811px 369.477px;" id="elik706ql60h" class="animable"></path><path d="M151.93,353.47a11.46,11.46,0,0,1,7.7-4.44.67.67,0,0,1,.5.08.94.94,0,0,1,.22.71A18.43,18.43,0,0,1,157,360.75a8.43,8.43,0,0,1-3.79,3.2,4.21,4.21,0,0,1-3.47-.2c-1.05-.6-.86-1.46-.75-2.65A14.67,14.67,0,0,1,151.93,353.47Z" style="fill: rgb(56, 211, 159); transform-origin: 154.628px 356.622px;" id="ellq6bt7xdug9" class="animable"></path><g id="el0nfxw1wnty5p"><path d="M151.93,353.47a11.46,11.46,0,0,1,7.7-4.44.67.67,0,0,1,.5.08.94.94,0,0,1,.22.71A18.43,18.43,0,0,1,157,360.75a8.43,8.43,0,0,1-3.79,3.2,4.21,4.21,0,0,1-3.47-.2c-1.05-.6-.86-1.46-.75-2.65A14.67,14.67,0,0,1,151.93,353.47Z" style="opacity: 0.2; transform-origin: 154.628px 356.622px;" class="animable"></path></g><path d="M133.08,355.26a20.22,20.22,0,0,0,2.56-9.43,22.33,22.33,0,0,0-1.6-8.32,46,46,0,0,0-3.46-6.75c-.4,6.4-.52,12.84-.34,19.27a14.22,14.22,0,0,0,.48,4c.4,1.2,1.22,2.13,2,1.83Z" style="fill: rgb(56, 211, 159); transform-origin: 132.899px 343.338px;" id="el0fxx0xegvvgv" class="animable"></path><path d="M138.67,335.7c-2.72,4-4.44,9.88-4.66,15.91a18.21,18.21,0,0,0,.66,6.23c.63,1.86,1.87,3.28,3.15,3.09s2.39-2,3.15-3.86c1.26-3.06,2.79-7.43,2.07-11.21A22.76,22.76,0,0,0,138.67,335.7Z" style="fill: rgb(56, 211, 159); transform-origin: 138.597px 348.324px;" id="elmqx1d5a25qk" class="animable"></path><g id="el77810zpuuwf"><path d="M138.67,335.7c-2.72,4-4.44,9.88-4.66,15.91a18.21,18.21,0,0,0,.66,6.23c.63,1.86,1.87,3.28,3.15,3.09s2.39-2,3.15-3.86c1.26-3.06,2.79-7.43,2.07-11.21A22.76,22.76,0,0,0,138.67,335.7Z" style="opacity: 0.1; transform-origin: 138.597px 348.324px;" class="animable"></path></g><path d="M146.94,358.19c2.23-2.07,3.14-5.54,3-8.81a35.45,35.45,0,0,0-2-9.48,39.8,39.8,0,0,0-5.22,9.9,13.64,13.64,0,0,0-.95,4.27,5.64,5.64,0,0,0,1.36,4,2.7,2.7,0,0,0,3.6.37l-.37.22Z" style="fill: rgb(56, 211, 159); transform-origin: 145.858px 349.431px;" id="el4bbyd2dewng" class="animable"></path><g id="elhnowvdmjpsv"><g style="opacity: 0.2; transform-origin: 145.858px 349.431px;" class="animable"><path d="M146.94,358.19c2.23-2.07,3.14-5.54,3-8.81a35.45,35.45,0,0,0-2-9.48,39.8,39.8,0,0,0-5.22,9.9,13.64,13.64,0,0,0-.95,4.27,5.64,5.64,0,0,0,1.36,4,2.7,2.7,0,0,0,3.6.37l-.37.22Z" id="elkl287wugfip" class="animable" style="transform-origin: 145.858px 349.431px;"></path></g></g><path d="M152,345.38c.55,4,1.1,8.16.42,12.17s-2.84,7.93-6.21,9.35c-1.4.58-3.21.59-4.15-.73a4,4,0,0,1-.41-3.26,11.31,11.31,0,0,1,1.44-3c2.69-4.37,8.3-15,8.87-14.53Z" style="fill: rgb(56, 211, 159); transform-origin: 147.105px 356.319px;" id="elqilpu3905" class="animable"></path><path d="M152,345.38c.55,4,1.1,8.16.42,12.17s-2.84,7.93-6.21,9.35c-1.4.58-3.21.59-4.15-.73a4,4,0,0,1-.41-3.26,11.31,11.31,0,0,1,1.44-3c2.69-4.37,8.3-15,8.87-14.53Z" style="fill: rgb(56, 211, 159); transform-origin: 147.105px 356.319px;" id="el6ep00jsmrsm" class="animable"></path><g id="el58erjmn0j76"><g style="opacity: 0.1; transform-origin: 147.105px 356.319px;" class="animable"><path d="M152,345.38c.55,4,1.1,8.16.42,12.17s-2.84,7.93-6.21,9.35c-1.4.58-3.21.59-4.15-.73a4,4,0,0,1-.41-3.26,11.31,11.31,0,0,1,1.44-3c2.69-4.37,8.3-15,8.87-14.53Z" id="eloum814lf5t" class="animable" style="transform-origin: 147.105px 356.319px;"></path></g></g><path d="M141.6,350.83a24.7,24.7,0,0,1,2.88,7.75,13.54,13.54,0,0,1-1,8.19,7.24,7.24,0,0,1-6.05,4.26,5.68,5.68,0,0,1-4.84-3c-1.15-2-.31-3.85.57-5.82C135.11,357.75,138.41,354.22,141.6,350.83Z" style="fill: rgb(56, 211, 159); transform-origin: 138.375px 360.93px;" id="el9rswlqa2j0o" class="animable"></path><path d="M166.35,358.28a4.66,4.66,0,0,1,.2,3.92,9.56,9.56,0,0,1-2.18,3.22,26.76,26.76,0,0,1-22.5,8.61,2.15,2.15,0,0,1-1.79-.92,2,2,0,0,1,.56-2.24,4.72,4.72,0,0,1,2.09-.87,35.83,35.83,0,0,0,11.76-5.36C158.14,362.12,162.46,360.38,166.35,358.28Z" style="fill: rgb(56, 211, 159); transform-origin: 153.417px 366.224px;" id="elybaz7fx4nq" class="animable"></path><g id="elgjur8qiv0wf"><path d="M166.35,358.28a4.66,4.66,0,0,1,.2,3.92,9.56,9.56,0,0,1-2.18,3.22,26.76,26.76,0,0,1-22.5,8.61,2.15,2.15,0,0,1-1.79-.92,2,2,0,0,1,.56-2.24,4.72,4.72,0,0,1,2.09-.87,35.83,35.83,0,0,0,11.76-5.36C158.14,362.12,162.46,360.38,166.35,358.28Z" style="opacity: 0.1; transform-origin: 153.417px 366.224px;" class="animable"></path></g><path d="M152,358.27c.6-.89,1.36-1.92,2.35-1.81.76.09,1.32.86,1.64,1.66,1.29,3.22-.25,7.18-2.71,9.36s-5.62,3-8.66,3.77l-3.14.79c-1.24.32-3.74-.1-2.63-2.07.75-1.32,3.24-2.07,4.39-2.85A32.66,32.66,0,0,0,152,358.27Z" style="fill: rgb(56, 211, 159); transform-origin: 147.515px 364.294px;" id="eljh6lqy1z9i" class="animable"></path><path d="M164.92,371a22.79,22.79,0,0,1-13,3.95,3.37,3.37,0,0,1-1.6-.31,1.61,1.61,0,0,1-.86-1.46,2.34,2.34,0,0,1,1.14-1.61,37.69,37.69,0,0,1,9.46-5.14,35.6,35.6,0,0,1,5.15-1.48c1.4-.29,2.89-1,4.31-1C169.75,367.05,167,369.63,164.92,371Z" style="fill: rgb(56, 211, 159); transform-origin: 159.497px 369.452px;" id="el30cyz5gezfq" class="animable"></path><path d="M152.29,383.09a20,20,0,0,0,10.7-4.52c.6-.48,1.26-1.24,1-2a1.74,1.74,0,0,0-1.24-.94c-3.63-1.22-7.35-2.45-11.14-2.28a12.82,12.82,0,0,0-5.22,1.34c-1.28.65-3.93,2.24-4.3,4s2.93,3.08,4.15,3.56A14,14,0,0,0,152.29,383.09Z" style="fill: rgb(56, 211, 159); transform-origin: 153.055px 378.236px;" id="el7bglfxrpyul" class="animable"></path><g id="elank1xtp0xdi"><path d="M152.29,383.09a20,20,0,0,0,10.7-4.52c.6-.48,1.26-1.24,1-2a1.74,1.74,0,0,0-1.24-.94c-3.63-1.22-7.35-2.45-11.14-2.28a12.82,12.82,0,0,0-5.22,1.34c-1.28.65-3.93,2.24-4.3,4s2.93,3.08,4.15,3.56A14,14,0,0,0,152.29,383.09Z" style="opacity: 0.1; transform-origin: 153.055px 378.236px;" class="animable"></path></g><path d="M137.11,373.57A33.84,33.84,0,0,1,148.5,373a6.43,6.43,0,0,1,2.74.79,3.21,3.21,0,0,1,1.55,2.53,3.32,3.32,0,0,1-1.41,2.67A7.55,7.55,0,0,1,148.7,380c-2.74.72-5.55,1.42-8.35,1a8.46,8.46,0,0,1-5.79-3.18C132.83,375.42,135.1,374,137.11,373.57Z" style="fill: rgb(56, 211, 159); transform-origin: 143.368px 376.943px;" id="eltlnmu35586g" class="animable"></path><g id="elkr8ko1dgzba"><path d="M137.11,373.57A33.84,33.84,0,0,1,148.5,373a6.43,6.43,0,0,1,2.74.79,3.21,3.21,0,0,1,1.55,2.53,3.32,3.32,0,0,1-1.41,2.67A7.55,7.55,0,0,1,148.7,380c-2.74.72-5.55,1.42-8.35,1a8.46,8.46,0,0,1-5.79-3.18C132.83,375.42,135.1,374,137.11,373.57Z" style="fill: rgb(255, 255, 255); opacity: 0.1; transform-origin: 143.368px 376.943px;" class="animable"></path></g><path d="M125.71,373.54a5.82,5.82,0,0,1-1.86-2.05,2.68,2.68,0,0,1,.17-2.78c.87-1,5.69-2.47,6.9-2.75a4.81,4.81,0,0,1,3,.64q2.09,1,4.09,2.07a6.23,6.23,0,0,1,1.86,1.37,2.76,2.76,0,0,1,.65,2.32,3.28,3.28,0,0,1-2.37,2.09,21.5,21.5,0,0,1-8,1.27C130.33,375.68,126.91,374.45,125.71,373.54Z" style="fill: rgb(56, 211, 159); transform-origin: 132.052px 370.83px;" id="el8lci2tujdum" class="animable"></path><g id="ellbmsprwkt4l"><g style="opacity: 0.1; transform-origin: 132.052px 370.83px;" class="animable"><path d="M125.71,373.54a5.82,5.82,0,0,1-1.86-2.05,2.68,2.68,0,0,1,.17-2.78c.87-1,5.69-2.47,6.9-2.75a4.81,4.81,0,0,1,3,.64q2.09,1,4.09,2.07a6.23,6.23,0,0,1,1.86,1.37,2.76,2.76,0,0,1,.65,2.32,3.28,3.28,0,0,1-2.37,2.09,21.5,21.5,0,0,1-8,1.27C130.33,375.68,126.91,374.45,125.71,373.54Z" id="elsi6qvrhixqh" class="animable" style="transform-origin: 132.052px 370.83px;"></path></g></g><path d="M135.5,375.44a4.54,4.54,0,0,1,2.88,2.42,3.48,3.48,0,0,1-.56,3.81,4.18,4.18,0,0,1-2.53.84l-3.3.33a2.63,2.63,0,0,1-2-.35c-.77-.62-.84-1.86-.83-2.93a8.89,8.89,0,0,1,.37-3,2.13,2.13,0,0,1,2.38-1.64A25.75,25.75,0,0,1,135.5,375.44Z" style="fill: rgb(56, 211, 159); transform-origin: 133.931px 378.902px;" id="el4tiu55rzxp2" class="animable"></path><path d="M109.36,353.47a11.42,11.42,0,0,0-7.7-4.44.67.67,0,0,0-.5.08,1,1,0,0,0-.22.71,18.5,18.5,0,0,0,3.31,10.93A8.43,8.43,0,0,0,108,364a4.21,4.21,0,0,0,3.47-.2c1-.6.86-1.46.75-2.65A14.5,14.5,0,0,0,109.36,353.47Z" style="fill: rgb(56, 211, 159); transform-origin: 106.617px 356.647px;" id="elj7dbvcmvgrh" class="animable"></path><g id="elkvg9o16wyp"><path d="M109.36,353.47a11.42,11.42,0,0,0-7.7-4.44.67.67,0,0,0-.5.08,1,1,0,0,0-.22.71,18.5,18.5,0,0,0,3.31,10.93A8.43,8.43,0,0,0,108,364a4.21,4.21,0,0,0,3.47-.2c1-.6.86-1.46.75-2.65A14.5,14.5,0,0,0,109.36,353.47Z" style="opacity: 0.2; transform-origin: 106.617px 356.647px;" class="animable"></path></g><path d="M128.21,355.26a20.22,20.22,0,0,1-2.56-9.43,22.53,22.53,0,0,1,1.6-8.32,48,48,0,0,1,3.46-6.75c.4,6.4.52,12.84.35,19.27a14.6,14.6,0,0,1-.49,4c-.39,1.2-1.22,2.13-2,1.83Z" style="fill: rgb(56, 211, 159); transform-origin: 128.393px 343.338px;" id="eluhdvtzp715" class="animable"></path><path d="M122.62,335.7c2.73,4,4.44,9.88,4.66,15.91a18,18,0,0,1-.66,6.23c-.63,1.86-1.86,3.28-3.15,3.09s-2.39-2-3.14-3.86c-1.27-3.06-2.8-7.43-2.08-11.21A22.76,22.76,0,0,1,122.62,335.7Z" style="fill: rgb(56, 211, 159); transform-origin: 122.694px 348.324px;" id="elqccd0iczxce" class="animable"></path><g id="elrawoo5a6xi"><path d="M122.62,335.7c2.73,4,4.44,9.88,4.66,15.91a18,18,0,0,1-.66,6.23c-.63,1.86-1.86,3.28-3.15,3.09s-2.39-2-3.14-3.86c-1.27-3.06-2.8-7.43-2.08-11.21A22.76,22.76,0,0,1,122.62,335.7Z" style="opacity: 0.1; transform-origin: 122.694px 348.324px;" class="animable"></path></g><path d="M114.35,358.19c-2.23-2.07-3.13-5.54-3-8.81a35.43,35.43,0,0,1,2-9.48,39.48,39.48,0,0,1,5.22,9.9,13.64,13.64,0,0,1,1,4.27,5.64,5.64,0,0,1-1.36,4,2.7,2.7,0,0,1-3.6.37l.38.22Z" style="fill: rgb(56, 211, 159); transform-origin: 115.458px 349.431px;" id="eli048kervm58" class="animable"></path><g id="el51gewyxxcoo"><g style="opacity: 0.2; transform-origin: 115.458px 349.431px;" class="animable"><path d="M114.35,358.19c-2.23-2.07-3.13-5.54-3-8.81a35.43,35.43,0,0,1,2-9.48,39.48,39.48,0,0,1,5.22,9.9,13.64,13.64,0,0,1,1,4.27,5.64,5.64,0,0,1-1.36,4,2.7,2.7,0,0,1-3.6.37l.38.22Z" id="el2v2vtgt2b9m" class="animable" style="transform-origin: 115.458px 349.431px;"></path></g></g><path d="M109.28,345.38c-.56,4-1.11,8.16-.42,12.17s2.83,7.93,6.2,9.35c1.41.58,3.21.59,4.15-.73a4,4,0,0,0,.41-3.26,11.31,11.31,0,0,0-1.44-3c-2.69-4.37-8.3-15-8.87-14.53Z" style="fill: rgb(56, 211, 159); transform-origin: 114.167px 356.319px;" id="el98fxtzzvjnv" class="animable"></path><path d="M109.28,345.38c-.56,4-1.11,8.16-.42,12.17s2.83,7.93,6.2,9.35c1.41.58,3.21.59,4.15-.73a4,4,0,0,0,.41-3.26,11.31,11.31,0,0,0-1.44-3c-2.69-4.37-8.3-15-8.87-14.53Z" style="fill: rgb(56, 211, 159); transform-origin: 114.167px 356.319px;" id="elkmbx1ikaxxr" class="animable"></path><g id="el7xa5l71zrae"><g style="opacity: 0.1; transform-origin: 114.167px 356.319px;" class="animable"><path d="M109.28,345.38c-.56,4-1.11,8.16-.42,12.17s2.83,7.93,6.2,9.35c1.41.58,3.21.59,4.15-.73a4,4,0,0,0,.41-3.26,11.31,11.31,0,0,0-1.44-3c-2.69-4.37-8.3-15-8.87-14.53Z" id="eld5rw4fvk57u" class="animable" style="transform-origin: 114.167px 356.319px;"></path></g></g><path d="M119.7,350.83a24.22,24.22,0,0,0-2.88,7.75,13.47,13.47,0,0,0,1,8.19c1.24,2.45,3.57,4.24,6.05,4.26a5.68,5.68,0,0,0,4.84-3c1.15-2,.31-3.85-.57-5.82C126.18,357.75,122.89,354.22,119.7,350.83Z" style="fill: rgb(56, 211, 159); transform-origin: 122.924px 360.93px;" id="elag9dtt80k6t" class="animable"></path><path d="M94.93,358.6a4.55,4.55,0,0,0-.19,3.84,9.53,9.53,0,0,0,2.13,3.16A26.22,26.22,0,0,0,118.93,374a2.1,2.1,0,0,0,1.75-.9,1.93,1.93,0,0,0-.54-2.2,4.7,4.7,0,0,0-2-.85,35.19,35.19,0,0,1-11.54-5.25C103,362.36,98.74,360.65,94.93,358.6Z" style="fill: rgb(56, 211, 159); transform-origin: 107.613px 366.37px;" id="eldsegp2s3kat" class="animable"></path><g id="elwsk3emv8cie"><path d="M94.93,358.6a4.55,4.55,0,0,0-.19,3.84,9.53,9.53,0,0,0,2.13,3.16A26.22,26.22,0,0,0,118.93,374a2.1,2.1,0,0,0,1.75-.9,1.93,1.93,0,0,0-.54-2.2,4.7,4.7,0,0,0-2-.85,35.19,35.19,0,0,1-11.54-5.25C103,362.36,98.74,360.65,94.93,358.6Z" style="opacity: 0.1; transform-origin: 107.613px 366.37px;" class="animable"></path></g><path d="M108.62,358c-.59-.88-1.34-1.9-2.3-1.78-.75.08-1.31.84-1.62,1.62-1.26,3.17.25,7.05,2.66,9.19s5.52,3,8.51,3.71l3.08.78c1.22.31,3.67-.11,2.58-2-.73-1.29-3.18-2-4.31-2.8A32,32,0,0,1,108.62,358Z" style="fill: rgb(56, 211, 159); transform-origin: 113.024px 363.911px;" id="el8qz2qxw2vmw" class="animable"></path><path d="M109,383.09a20,20,0,0,1-10.69-4.52c-.61-.48-1.27-1.24-1-2a1.76,1.76,0,0,1,1.24-.94c3.64-1.22,7.35-2.45,11.14-2.28a12.78,12.78,0,0,1,5.22,1.34c1.28.65,3.93,2.24,4.31,4s-2.94,3.08-4.16,3.56A14,14,0,0,1,109,383.09Z" style="fill: rgb(56, 211, 159); transform-origin: 108.249px 378.236px;" id="ely18rlodzjhr" class="animable"></path><g id="elcyu2ar1n85"><path d="M109,383.09a20,20,0,0,1-10.69-4.52c-.61-.48-1.27-1.24-1-2a1.76,1.76,0,0,1,1.24-.94c3.64-1.22,7.35-2.45,11.14-2.28a12.78,12.78,0,0,1,5.22,1.34c1.28.65,3.93,2.24,4.31,4s-2.94,3.08-4.16,3.56A14,14,0,0,1,109,383.09Z" style="opacity: 0.1; transform-origin: 108.249px 378.236px;" class="animable"></path></g><path d="M124.18,373.57a33.84,33.84,0,0,0-11.39-.62,6.47,6.47,0,0,0-2.74.79,3.21,3.21,0,0,0-1.55,2.53,3.32,3.32,0,0,0,1.41,2.67,7.55,7.55,0,0,0,2.68,1.09c2.74.72,5.55,1.42,8.35,1a8.51,8.51,0,0,0,5.8-3.18C128.46,375.42,126.19,374,124.18,373.57Z" style="fill: rgb(56, 211, 159); transform-origin: 117.924px 376.942px;" id="elhitp9c98fx" class="animable"></path><g id="elupvt3i8amq"><path d="M124.18,373.57a33.84,33.84,0,0,0-11.39-.62,6.47,6.47,0,0,0-2.74.79,3.21,3.21,0,0,0-1.55,2.53,3.32,3.32,0,0,0,1.41,2.67,7.55,7.55,0,0,0,2.68,1.09c2.74.72,5.55,1.42,8.35,1a8.51,8.51,0,0,0,5.8-3.18C128.46,375.42,126.19,374,124.18,373.57Z" style="fill: rgb(255, 255, 255); opacity: 0.1; transform-origin: 117.924px 376.942px;" class="animable"></path></g><path d="M135.59,373.54a6,6,0,0,0,1.86-2.05,2.71,2.71,0,0,0-.18-2.78c-.87-1-5.69-2.47-6.9-2.75a4.82,4.82,0,0,0-3,.64c-1.38.64-2.75,1.33-4.09,2.07a6.23,6.23,0,0,0-1.86,1.37,2.79,2.79,0,0,0-.65,2.32,3.28,3.28,0,0,0,2.37,2.09,21.5,21.5,0,0,0,8,1.27C131,375.68,134.39,374.45,135.59,373.54Z" style="fill: rgb(56, 211, 159); transform-origin: 129.239px 370.83px;" id="elbpvbunthmp" class="animable"></path><g id="elfmt6utsaz74"><g style="opacity: 0.1; transform-origin: 129.239px 370.83px;" class="animable"><path d="M135.59,373.54a6,6,0,0,0,1.86-2.05,2.71,2.71,0,0,0-.18-2.78c-.87-1-5.69-2.47-6.9-2.75a4.82,4.82,0,0,0-3,.64c-1.38.64-2.75,1.33-4.09,2.07a6.23,6.23,0,0,0-1.86,1.37,2.79,2.79,0,0,0-.65,2.32,3.28,3.28,0,0,0,2.37,2.09,21.5,21.5,0,0,0,8,1.27C131,375.68,134.39,374.45,135.59,373.54Z" id="elfr8gsxcdmy" class="animable" style="transform-origin: 129.239px 370.83px;"></path></g></g><path d="M125.79,375.44a4.53,4.53,0,0,0-2.87,2.42,3.48,3.48,0,0,0,.55,3.81,4.21,4.21,0,0,0,2.54.84l3.29.33a2.66,2.66,0,0,0,2-.35c.76-.62.83-1.86.82-2.93a8.42,8.42,0,0,0-.37-3,2.13,2.13,0,0,0-2.38-1.64A26,26,0,0,0,125.79,375.44Z" style="fill: rgb(56, 211, 159); transform-origin: 127.359px 378.901px;" id="elqxihho7z4r" class="animable"></path><path d="M131.22,351.86a2.21,2.21,0,0,0-.57-.36.5.5,0,0,1,.19,0,.28.28,0,0,1,.12,0h0a.26.26,0,0,1,.11.08.36.36,0,0,1,.08.12.27.27,0,0,1,.06.12S131.22,351.84,131.22,351.86Z" style="fill: rgb(56, 211, 159); transform-origin: 130.935px 351.675px;" id="el7mya3meykl5" class="animable"></path><g id="elmp5gvw56pf"><path d="M131.23,351.86h0a2.21,2.21,0,0,0-.57-.36.5.5,0,0,1,.19,0,.28.28,0,0,1,.12,0h0a.26.26,0,0,1,.11.08.36.36,0,0,1,.08.12.27.27,0,0,1,.06.12S131.22,351.84,131.23,351.86Z" style="fill: rgb(56, 211, 159); opacity: 0.1; transform-origin: 130.945px 351.675px;" class="animable"></path></g><path d="M135.33,363a9,9,0,0,1-1.7,3,3.81,3.81,0,0,1-2.86,1.39h-.26a3.8,3.8,0,0,1-2.85-1.39,9.38,9.38,0,0,1-1.71-3,9.91,9.91,0,0,1-.7-4.63,8.11,8.11,0,0,1,2.32-4.45c.3,0,1.27-1.12,1.57-1.35l.08-.06.1-.08c.2-.17.48-.41.75-.62s.25-.18.37-.25l.1-.05.11-.05a2.21,2.21,0,0,1,.57.36h0c.37.27.73.61.92.75s1.27,1.35,1.58,1.35a8,8,0,0,1,2.31,4.45A9.67,9.67,0,0,1,135.33,363Z" style="fill: rgb(56, 211, 159); transform-origin: 130.642px 359.425px;" id="elsodgx8dm7e" class="animable"></path><path d="M130.65,351.5l-.11.05-.1.05c-.12.07-.24.16-.37.25.08-.23.21-.37.38-.39A.51.51,0,0,1,130.65,351.5Z" style="fill: rgb(56, 211, 159); transform-origin: 130.36px 351.655px;" id="el1nya3yh1n5f" class="animable"></path><g id="el19ca171zez6"><g style="opacity: 0.2; transform-origin: 130.646px 359.425px;" class="animable"><path d="M135.33,363a9,9,0,0,1-1.7,3,3.81,3.81,0,0,1-2.86,1.39h-.26a3.8,3.8,0,0,1-2.85-1.39,9.38,9.38,0,0,1-1.71-3,9.91,9.91,0,0,1-.7-4.63,8.11,8.11,0,0,1,2.32-4.45c.3,0,1.27-1.12,1.57-1.35s.57-.49.93-.76a2.35,2.35,0,0,1,.58-.35,2.24,2.24,0,0,1,.58.36c.37.27.73.61.92.75s1.27,1.35,1.58,1.35a8,8,0,0,1,2.31,4.45A9.67,9.67,0,0,1,135.33,363Z" style="fill: rgb(255, 255, 255); transform-origin: 130.646px 359.425px;" id="elzbyb1kieskg" class="animable"></path><path d="M130.65,351.5a2.35,2.35,0,0,0-.58.35c.08-.23.21-.37.38-.39A.51.51,0,0,1,130.65,351.5Z" style="fill: rgb(255, 255, 255); transform-origin: 130.36px 351.655px;" id="elsi6zgml1kud" class="animable"></path></g></g><g id="elw58sccl1rl"><path d="M131.23,351.86a2.24,2.24,0,0,0-.58-.36.5.5,0,0,1,.19,0C131,351.48,131.14,351.62,131.23,351.86Z" style="fill: rgb(255, 255, 255); opacity: 0.1; transform-origin: 130.94px 351.675px;" class="animable"></path></g></g><g id="freepik--Character--inject-19" class="animable" style="transform-origin: 329.02px 307.297px;"><path d="M320.6,261.68H348c.89,0,1.29-.72.89-1.61L342,244.6a2.85,2.85,0,0,0-2.34-1.61H312.28c-.89,0-1.29.72-.9,1.61l6.88,15.47A2.83,2.83,0,0,0,320.6,261.68Z" style="fill: rgb(56, 211, 159); transform-origin: 330.138px 252.335px;" id="elo49cgpiogun" class="animable"></path><g id="elf28zulv7tu6"><path d="M320.6,261.68H348c.89,0,1.29-.72.89-1.61L342,244.6a2.85,2.85,0,0,0-2.34-1.61H312.28c-.89,0-1.29.72-.9,1.61l6.88,15.47A2.83,2.83,0,0,0,320.6,261.68Z" style="opacity: 0.2; transform-origin: 330.138px 252.335px;" class="animable"></path></g><path d="M311.1,243h1.18c-.89,0-1.29.72-.9,1.61l6.88,15.47a2.83,2.83,0,0,0,2.34,1.61h-1.19a2.83,2.83,0,0,1-2.33-1.61L310.2,244.6C309.8,243.71,310.21,243,311.1,243Z" style="fill: rgb(56, 211, 159); transform-origin: 315.323px 252.345px;" id="elrnmoy00dc7" class="animable"></path><g id="el36giup057ov"><path d="M311.1,243h1.18c-.89,0-1.29.72-.9,1.61l6.88,15.47a2.83,2.83,0,0,0,2.34,1.61h-1.19a2.83,2.83,0,0,1-2.33-1.61L310.2,244.6C309.8,243.71,310.21,243,311.1,243Z" style="opacity: 0.4; transform-origin: 315.323px 252.345px;" class="animable"></path></g><polygon points="321.11 259.9 345.92 259.9 339.18 244.77 314.37 244.77 321.11 259.9" style="fill: rgb(38, 50, 56); transform-origin: 330.145px 252.335px;" id="elthzzk3d6spg" class="animable"></polygon><g id="elm1zjnyer3jf"><polygon points="321.11 259.9 345.92 259.9 339.18 244.77 314.37 244.77 321.11 259.9" style="fill: rgb(255, 255, 255); opacity: 0.8; transform-origin: 330.145px 252.335px;" class="animable"></polygon></g><polygon points="309.85 389.4 308.17 397.31 299.58 396.18 300.83 387.4 309.85 389.4" style="fill: rgb(250, 178, 123); transform-origin: 304.715px 392.355px;" id="eluxb0gvl7sko" class="animable"></polygon><path d="M295.21,396.18c-1.12-.11-2.26-.43-2.58-.95a.8.8,0,0,1,.1-.92,1.14,1.14,0,0,1,.73-.44c1.54-.26,4.51,1.84,4.64,1.93a.22.22,0,0,1,.08.24.23.23,0,0,1-.19.16A16.14,16.14,0,0,1,295.21,396.18ZM294,394.29a1.13,1.13,0,0,0-.41,0,.57.57,0,0,0-.45.26c-.19.25-.14.38-.09.46.36.63,2.63.86,4.33.82A9.89,9.89,0,0,0,294,394.29Z" style="fill: rgb(56, 211, 159); transform-origin: 295.359px 395.049px;" id="el53ic495gyt" class="animable"></path><path d="M298,396.19a.15.15,0,0,1-.09,0c-1-.58-3-2.75-2.71-3.74,0-.25.26-.53.85-.53a1.6,1.6,0,0,1,1.15.48c1.06,1.06,1.06,3.52,1.06,3.63a.19.19,0,0,1-.11.18A.2.2,0,0,1,298,396.19Zm-1.85-3.87-.12,0c-.38,0-.42.15-.45.2-.11.61,1.16,2.27,2.21,3a5.13,5.13,0,0,0-.92-2.88,1.22,1.22,0,0,0-.72-.34Z" style="fill: rgb(56, 211, 159); transform-origin: 296.716px 394.068px;" id="elt1xr45a7f7e" class="animable"></path><path d="M299,395l9.84,1a.8.8,0,0,1,.71.69l1,8.18a1.32,1.32,0,0,1-1.14,1.49h-.28c-3.54-.41-6.68-.91-11.09-1.34-5.22-.51-3.95.24-10.09-.27-3.7-.31-4-4.58-2.37-4.63,7.25-.2,8.2-2.29,11.22-4.58A3.24,3.24,0,0,1,299,395Z" style="fill: rgb(38, 50, 56); transform-origin: 297.6px 400.669px;" id="el370sj05zpx7" class="animable"></path><g id="ela3o6iiesjgl"><polygon points="300.17 392.02 309.15 392.72 309.85 389.4 300.83 387.4 300.17 392.02" style="opacity: 0.2; transform-origin: 305.01px 390.06px;" class="animable"></polygon></g><polygon points="307.45 323.93 298.97 386.23 312.15 387.27 327.49 325.5 307.45 323.93" style="fill: rgb(38, 50, 56); transform-origin: 313.23px 355.6px;" id="eltz972xv1jue" class="animable"></polygon><g id="elwznpbt7s0pc"><polygon points="307.45 323.93 298.97 386.23 312.15 387.27 327.49 325.5 307.45 323.93" style="opacity: 0.3; transform-origin: 313.23px 355.6px;" class="animable"></polygon></g><path d="M313.36,386.35l-15.88-1.25a3.44,3.44,0,0,0,.13,3.92l15.33,1.38S314.46,389.52,313.36,386.35Z" style="fill: rgb(56, 211, 159); transform-origin: 305.345px 387.75px;" id="el8rwvdp81683" class="animable"></path><path d="M322.61,262.35l-3.23-7.8a2.34,2.34,0,0,0-1.16-.92L316.6,253a2.36,2.36,0,0,1-.91-.61l-.75-.81a2.33,2.33,0,0,0-2.65-.55l-.7.3a2.32,2.32,0,0,0-1.37,1.7c-.42,2.3-.75,7.33,3.41,10.71l4.65,1.91Z" style="fill: rgb(250, 178, 123); transform-origin: 316.297px 258.241px;" id="el4q8ctoyjxxi" class="animable"></path><polygon points="318.28 265.69 324.46 274.99 328.79 270.41 322.61 262.35 318.28 265.69" style="fill: rgb(250, 178, 123); transform-origin: 323.535px 268.67px;" id="elied8q32p2vo" class="animable"></polygon><path d="M355.68,243.58c-.31-.63-5.28,1.22-11.09,4.14s-10.27,5.8-9.95,6.43,5.29-1.22,11.1-4.14S356,244.22,355.68,243.58Z" style="fill: rgb(38, 50, 56); transform-origin: 345.16px 248.865px;" id="elkfwc4etn0ve" class="animable"></path><path d="M348.26,246l1.57-.69,1,2c-.47.28-1,.56-1.49.85Z" style="fill: rgb(56, 211, 159); transform-origin: 349.545px 246.735px;" id="elvl9tknuprrd" class="animable"></path><g id="elshplggnqz8n"><path d="M348.26,246l1.57-.69,1,2c-.47.28-1,.56-1.49.85Z" style="fill: rgb(255, 255, 255); opacity: 0.5; transform-origin: 349.545px 246.735px;" class="animable"></path></g><path d="M353.9,243.39c.28-1.32-5,1-5.26,1.16s-.62-.4-.25-.58,6.71-3.22,6.14-.5c-.08.39-.71.32-.63-.08Z" style="fill: rgb(56, 211, 159); transform-origin: 351.399px 243.461px;" id="el9xerbk8arow" class="animable"></path><g id="elqeva5af3oe"><g style="opacity: 0.2; transform-origin: 351.399px 243.461px;" class="animable"><path d="M353.9,243.39c.28-1.32-5,1-5.26,1.16s-.62-.4-.25-.58,6.71-3.22,6.14-.5c-.08.39-.71.32-.63-.08Z" id="elwr59ezppbi" class="animable" style="transform-origin: 351.399px 243.461px;"></path></g></g><path d="M354.18,264.53l-5.12-8.7a16.42,16.42,0,0,0-2.44-8.43,19.66,19.66,0,0,0-1.92-1.72,24.91,24.91,0,0,0-4,2.49c-1.86,1.43-2.35,2.46-.08,5.93a18.7,18.7,0,0,0,4.13,4.49l4.84,9.86Z" style="fill: rgb(250, 178, 123); transform-origin: 346.642px 257.065px;" id="elqrtkfhu0c7l" class="animable"></path><path d="M355.33,263.48,353.11,260a10.34,10.34,0,0,0-6.78,5.25l1.88,4.06Z" style="fill: rgb(56, 211, 159); transform-origin: 350.83px 264.655px;" id="el8zbz3uf0zs" class="animable"></path><path d="M381,244.05c-3.87.26-7.24-.42-13.86,20.43a27.85,27.85,0,0,1-4.4,7.74l-7.28-10s-4.77.28-8.07,6.11c0,0,5.62,18.83,16.16,17.47s16.42-13.46,18.74-20.69S389.61,243.47,381,244.05Z" style="fill: rgb(38, 50, 56); transform-origin: 366.622px 264.952px;" id="elgwi224hj6wq" class="animable"></path><polygon points="362.24 234.54 361.52 240.98 372.35 241.03 372.59 232.89 362.24 234.54" style="fill: rgb(250, 178, 123); transform-origin: 367.055px 236.96px;" id="el9gi64nar1qf" class="animable"></polygon><g id="elyv997dbpgwn"><path d="M362,237.65c2.73-.72,4.55-3.94,4.55-3.94l-2.3.45-2,.38Z" style="opacity: 0.2; transform-origin: 364.275px 235.68px;" class="animable"></path></g><path d="M359.28,216.43c-.2.51-.1,1,.24,1.17s.82-.19,1-.69.1-1-.25-1.16S359.49,215.92,359.28,216.43Z" style="fill: rgb(38, 50, 56); transform-origin: 359.895px 216.676px;" id="el2ig2xrcbs7n" class="animable"></path><path d="M360.62,217.8l-4.15,3a3.9,3.9,0,0,0,3.13,1.51Z" style="fill: rgb(237, 137, 62); transform-origin: 358.545px 220.055px;" id="ellr2n4yq07ia" class="animable"></path><path d="M361.27,213.34a.28.28,0,0,1,.23.15,2.27,2.27,0,0,0,1.67,1.23.27.27,0,0,1,.26.3.31.31,0,0,1-.32.27,2.78,2.78,0,0,1-2.13-1.53.29.29,0,0,1,.12-.39h0A.25.25,0,0,1,361.27,213.34Z" style="fill: rgb(38, 50, 56); transform-origin: 362.189px 214.313px;" id="elrxvvlbebwj" class="animable"></path><path d="M380,222.36c-2.43,6.91-3.31,9.89-8,12.52-6.6,2.18-15.19-.47-14.92-7.95.23-6.73,4.16-16.88,12-17.81a10.17,10.17,0,0,1,11.39,8.69A9.79,9.79,0,0,1,380,222.36Z" style="fill: rgb(250, 178, 123); transform-origin: 368.815px 222.326px;" id="ele8ji1hn1vx" class="animable"></path><path d="M383.42,228a52.87,52.87,0,0,0-5,4.79,11.24,11.24,0,0,1-3.4,2.48,11.5,11.5,0,0,1-8.27.34h0s-7.21-6.37-2.4-18.2a6.91,6.91,0,0,1,.31-11.47c2.27-1.44,5.79-.53,7.89,1.15a8.88,8.88,0,0,1,8,2.35,18.06,18.06,0,0,1,4.42,7.41,13.8,13.8,0,0,1,.93,7.3A7,7,0,0,1,383.42,228Z" style="fill: rgb(38, 50, 56); transform-origin: 373.743px 220.722px;" id="el439tf6dvh4d" class="animable"></path><path d="M365,220a5.7,5.7,0,0,0-2.93,3.23c-.64,1.88,1.06,2.93,2.93,2.51,1.69-.39,4.05-1.83,3.88-3.77A2.61,2.61,0,0,0,365,220Z" style="fill: rgb(250, 178, 123); transform-origin: 365.411px 222.746px;" id="el00vlrz1hxgpy" class="animable"></path><path d="M374.73,236.76c-2.4-1-6.73-1.14-13-.17a2.12,2.12,0,0,0-1.48,1.44,1.23,1.23,0,0,0,.79,1.66c-.05.91-.28,1.91-.33,2.83a37.44,37.44,0,0,1,5.48.3,68.45,68.45,0,0,1,8.41,1.12,11.47,11.47,0,0,1-.27-4,1.45,1.45,0,0,0,1.46-1.14A2.17,2.17,0,0,0,374.73,236.76Z" style="fill: rgb(56, 211, 159); transform-origin: 367.975px 239.936px;" id="el47k8555eh2d" class="animable"></path><path d="M374.73,236.76c-2.4-1-6.73-1.14-13-.17a2.12,2.12,0,0,0-1.48,1.44,1.23,1.23,0,0,0,.79,1.66c-.05.91-.28,1.91-.33,2.83a37.44,37.44,0,0,1,5.48.3,68.45,68.45,0,0,1,8.41,1.12,11.47,11.47,0,0,1-.27-4,1.45,1.45,0,0,0,1.46-1.14A2.17,2.17,0,0,0,374.73,236.76Z" style="fill: rgb(56, 211, 159); transform-origin: 367.975px 239.936px;" id="eluavzqopypp" class="animable"></path><path d="M345.16,305.36s-2.22-29.7-2.08-51.13c.1-15.81,11.44-13,26-12.9,11.58.06,15.52,1.06,17.1,7.37S380,305.53,380,305.53Z" style="fill: rgb(56, 211, 159); transform-origin: 364.733px 273.303px;" id="elbxdgya0580v" class="animable"></path><g id="elw4dbs35ldkk"><path d="M345.16,305.36s-2.22-29.7-2.08-51.13c.1-15.81,11.44-13,26-12.9,11.58.06,15.52,1.06,17.1,7.37S380,305.53,380,305.53Z" style="opacity: 0.5; transform-origin: 364.733px 273.303px;" class="animable"></path></g><path d="M323.76,263.43a4.46,4.46,0,0,0-2.68,1,8.66,8.66,0,0,0-2.75,3.69h0a12.36,12.36,0,0,0-3.87-4l-.09-.05c.51-7,6.27-6.49,6.27-6.49l.14.36A30.49,30.49,0,0,0,323.76,263.43Z" style="fill: rgb(56, 211, 159); transform-origin: 319.065px 262.846px;" id="eltq10yvzmvla" class="animable"></path><g id="elw1qclxap1l"><path d="M323.76,263.43a4.46,4.46,0,0,0-2.68,1,8.66,8.66,0,0,0-2.75,3.69h0a12.36,12.36,0,0,0-3.87-4l-.09-.05c.51-7,6.27-6.49,6.27-6.49l.14.36A30.49,30.49,0,0,0,323.76,263.43Z" style="opacity: 0.2; transform-origin: 319.065px 262.846px;" class="animable"></path></g><path d="M339.1,288.39c-10.63-.23-20.82-17.8-20.82-17.8a4.12,4.12,0,0,1,.05-2.44,8.66,8.66,0,0,1,2.75-3.69,4.46,4.46,0,0,1,2.68-1,5,5,0,0,1,1.94.27s7.84,9.67,9.75,8.8,2.64-4.08,3.34-8.09c3.73-21.42,7.82-22.07,11.41-22.16C357.66,242.05,348.51,288.59,339.1,288.39Z" style="fill: rgb(56, 211, 159); transform-origin: 335.529px 265.335px;" id="elmcwaodkerr" class="animable"></path><g id="elz3dh0hlo82"><g style="opacity: 0.1; transform-origin: 335.529px 265.335px;" class="animable"><path d="M339.1,288.39c-10.63-.23-20.82-17.8-20.82-17.8a4.12,4.12,0,0,1,.05-2.44,8.66,8.66,0,0,1,2.75-3.69,4.46,4.46,0,0,1,2.68-1,5,5,0,0,1,1.94.27s7.84,9.67,9.75,8.8,2.64-4.08,3.34-8.09c3.73-21.42,7.82-22.07,11.41-22.16C357.66,242.05,348.51,288.59,339.1,288.39Z" style="fill: rgb(255, 255, 255); transform-origin: 335.529px 265.335px;" id="elpwgjz6t7ahq" class="animable"></path></g></g><path d="M380,305.53s.91,9.05.78,12.23c-.67,16.87-16.65,22.83-29.39,20.49l-45.26-4.91c-1.84,6.13-23.16,39.89-23.16,39.89l-11.21-6.44s11.62-27.87,19.12-47.26c4.29-11.07,38.29-11.4,51.13-9.12,3.91,1,3.15-5.05,3.15-5.05Z" style="fill: rgb(38, 50, 56); transform-origin: 326.276px 339.295px;" id="elpvvqybhjcfg" class="animable"></path><polygon points="280.11 373.85 275.83 380.99 267.84 377.02 271.99 368.89 280.11 373.85" style="fill: rgb(250, 178, 123); transform-origin: 273.975px 374.94px;" id="elfg3mr5ol92g" class="animable"></polygon><path d="M263.59,375.55c-1-.48-2-1.17-2.19-1.78a.83.83,0,0,1,.41-.87,1.16,1.16,0,0,1,.85-.18c1.59.26,3.77,3.3,3.87,3.43a.23.23,0,0,1,0,.26.23.23,0,0,1-.24.09A16.33,16.33,0,0,1,263.59,375.55Zm-.59-2.26a1.51,1.51,0,0,0-.41-.13.6.6,0,0,0-.52.1c-.26.18-.27.33-.24.42.14.73,2.27,1.73,3.94,2.25A10.24,10.24,0,0,0,263,373.29Z" style="fill: rgb(56, 211, 159); transform-origin: 263.979px 374.604px;" id="elump1unbgnvs" class="animable"></path><path d="M266.26,376.48a.1.1,0,0,1-.08-.05c-.8-.91-2-3.68-1.38-4.55.12-.22.42-.42,1-.22a1.62,1.62,0,0,1,1,.85c.68,1.38-.14,3.77-.18,3.88a.2.2,0,0,1-.17.14A.17.17,0,0,1,266.26,376.48Zm-.5-4.38-.11-.06c-.37-.14-.46,0-.5,0-.32.55.36,2.6,1.13,3.7a5.16,5.16,0,0,0,.06-3.11,1.15,1.15,0,0,0-.58-.57Z" style="fill: rgb(56, 211, 159); transform-origin: 265.849px 374.059px;" id="el2awp48p1na7" class="animable"></path><path d="M267.7,375.71l9.26,4.23a.83.83,0,0,1,.46.91l-1.77,8.3A1.36,1.36,0,0,1,274,390.2a.9.9,0,0,1-.28-.08c-3.31-1.59-6.19-3.13-10.34-5-4.9-2.24-3.93-1.08-9.73-3.64-3.49-1.54-2.32-5.78-.76-5.3,7.12,2.24,8.75.52,12.46-.7A3.25,3.25,0,0,1,267.7,375.71Z" style="fill: rgb(38, 50, 56); transform-origin: 264.404px 382.798px;" id="elb3dyi2quso" class="animable"></path><g id="eliun9kd4zqlp"><polygon points="277.93 377.48 280.11 373.85 271.99 368.89 269.99 372.82 277.93 377.48" style="opacity: 0.2; transform-origin: 275.05px 373.185px;" class="animable"></polygon></g><path d="M284.75,373.81l-13.9-8.67a3.54,3.54,0,0,0-1.75,3.64l13.35,8.53S284.25,377.23,284.75,373.81Z" style="fill: rgb(56, 211, 159); transform-origin: 276.903px 371.225px;" id="eljy5xeytxzgr" class="animable"></path><path d="M363.35,340.86h23a17,17,0,0,0,17-15.69l3.28-41.4a11.54,11.54,0,0,0-11.51-12.45H382.42a33.62,33.62,0,0,0-32.21,24l-8.83,29.57a11.71,11.71,0,0,1-11.21,8.35H314.06a7.63,7.63,0,0,0-7.63,7.63h56.92Z" style="fill: rgb(56, 211, 159); transform-origin: 356.548px 306.095px;" id="el9iz26vx3h9" class="animable"></path><path d="M353,340.86c.63,9.85,2.33,45.73-.21,53.63-2.23,6.95-12.44,8.61-18.48,12.29-1,.62-.66,2.59.46,2.59h47c1.12,0,1.47-2,.45-2.59-6-3.68-16.25-5.34-18.48-12.29-2.54-7.9-.84-43.78-.21-53.63Z" style="fill: rgb(56, 211, 159); transform-origin: 358.271px 375.115px;" id="elmoot2bllvss" class="animable"></path><g id="elo75zvcaunn"><path d="M353.42,348.31h9.67c.16-3,.31-5.6.43-7.45H353C353.1,342.71,353.26,345.29,353.42,348.31Z" style="opacity: 0.2; transform-origin: 358.26px 344.585px;" class="animable"></path></g><g id="el73s4qdovpx9"><path d="M363.35,340.86h23a17,17,0,0,0,17-15.69l3.28-41.4a11.54,11.54,0,0,0-11.51-12.45H382.42a33.62,33.62,0,0,0-32.21,24l-8.83,29.57a11.71,11.71,0,0,1-11.21,8.35H314.06a7.63,7.63,0,0,0-7.63,7.63h56.92Z" style="fill: rgb(255, 255, 255); opacity: 0.7; transform-origin: 356.548px 306.095px;" class="animable"></path></g></g><defs>     <filter id="active" height="200%">         <feMorphology in="SourceAlpha" result="DILATED" operator="dilate" radius="2"></feMorphology>                <feFlood flood-color="#32DFEC" flood-opacity="1" result="PINK"></feFlood>        <feComposite in="PINK" in2="DILATED" operator="in" result="OUTLINE"></feComposite>        <feMerge>            <feMergeNode in="OUTLINE"></feMergeNode>            <feMergeNode in="SourceGraphic"></feMergeNode>        </feMerge>    </filter>    <filter id="hover" height="200%">        <feMorphology in="SourceAlpha" result="DILATED" operator="dilate" radius="2"></feMorphology>                <feFlood flood-color="#ff0000" flood-opacity="0.5" result="PINK"></feFlood>        <feComposite in="PINK" in2="DILATED" operator="in" result="OUTLINE"></feComposite>        <feMerge>            <feMergeNode in="OUTLINE"></feMergeNode>            <feMergeNode in="SourceGraphic"></feMergeNode>        </feMerge>            <feColorMatrix type="matrix" values="0   0   0   0   0                0   1   0   0   0                0   0   0   0   0                0   0   0   1   0 "></feColorMatrix>    </filter></defs></svg>